<svg viewBox="0 0 32 32" xmlns="http://www.w3.org/2000/svg"><g fill="none"><path d="M22 0h.28A10 10 0 0132 9.72v.56A10 10 0 0122.28 20h-.56a9.96 9.96 0 01-3.42-.7L7.18 30.77A4 4 0 014.3 32H2a2 2 0 01-2-2v-3.8c0-.45.18-.88.5-1.2l.05-.05a2 2 0 011.08-.56l.89-.14A1.77 1.77 0 004 22.5V22a1 1 0 011-1h.5c.83 0 1.5-.67 1.5-1.5V19a1 1 0 011-1h.75c.69 0 1.25-.56 1.25-1.25v-.42a2 2 0 01.59-1.42l1.88-1.88A10 10 0 0122 0zm.14 4c-.46 0-.93.05-1.39.17a2 2 0 00-1.04 3.25l.1.11 4.66 4.66a2 2 0 003.32-.8l.04-.14c.45-1.84 0-3.85-1.36-5.33l-.19-.2A5.83 5.83 0 0022.42 4h-.28z" fill="#BFC3C7"/><path d="M15.45 17.55c.54.47 1.13.89 1.77 1.23L4 32H2a2 2 0 01-.82-.18l14.27-14.27z" fill="#95999D"/></g></svg>