<svg xmlns="http://www.w3.org/2000/svg" width="32" height="24" viewBox="0 0 32 24">
    <g fill="none" fill-rule="evenodd">
        <path fill="#FFD799" d="M32 21.995A1.997 1.997 0 0 1 30.002 24H24v-2.499c0-.829-.666-1.5-1.5-1.5-.829 0-1.5.678-1.5 1.5v2.5H11v-2.5c0-.829-.666-1.5-1.5-1.5-.829 0-1.5.678-1.5 1.5v2.5H1.998A2.002 2.002 0 0 1 0 21.994V2.005C0 .897.889 0 2.001 0h27.997C31.104 0 32 .897 32 2.005v19.99z"/>
        <path fill="#FF9300" d="M12 11.5c1.5 0 3 2.25 3 3s0 1.5-.75 1.5H3.75C3 16 3 15.25 3 14.5s1.5-3 3-3 .75.75 3 .75 1.5-.75 3-.75zM28 14v1H17v-1h11zm0-3v1H17v-1h11zM9 4c1.657 0 3 1.511 3 3.375s-1.343 3.375-3 3.375-3-1.511-3-3.375S7.343 4 9 4zm19 4v1H17V8h11zm-5-3v1h-6V5h6z"/>
    </g>
</svg>
