<svg xmlns="http://www.w3.org/2000/svg" xmlns:xlink="http://www.w3.org/1999/xlink" width="32" height="32" viewBox="0 0 32 32">
    <defs>
        <path id="a" d="M0 0h32v22H0z"/>
        <path id="c" d="M0 22h32V0H0z"/>
    </defs>
    <g fill="none" fill-rule="evenodd" transform="translate(0 5)">
        <mask id="b" fill="#fff">
            <use xlink:href="#a"/>
        </mask>
        <path fill="#16B52D" d="M0 1.991C0 .891.889.001 2.001.001h27.998C31.104 0 32 .888 32 1.99V20.01A1.992 1.992 0 0 1 29.999 22H2.001A1.995 1.995 0 0 1 0 20.01V1.99z" mask="url(#b)"/>
        <mask id="d" fill="#fff">
            <use xlink:href="#c"/>
        </mask>
        <path fill="#8EE39B" d="M2 20h28V2H2z" mask="url(#d)"/>
        <path fill="#16B52D" d="M16 6.005a5 5 0 1 1 0 10 5 5 0 0 1 0-10zM7 9a2.002 2.002 0 0 1 0 4.003A2 2 0 0 1 7 9zm18 0a2.002 2.002 0 0 1 0 4.003A2 2 0 0 1 25 9z" mask="url(#d)"/>
    </g>
</svg>
