<svg xmlns="http://www.w3.org/2000/svg" width="32" height="32" viewBox="0 0 32 32">
    <g fill="none" fill-rule="evenodd">
        <path fill="#BFC3C7" d="M22 0l.28.004a10 10 0 019.716 9.716L32 10l-.004.28c-.146 5.3-4.416 9.57-9.716 9.716L22 20l-.28-.004a9.96 9.96 0 01-3.421-.703L7.179 30.782A4 4 0 014.305 32H2a2 2 0 01-2-2v-3.793c0-.453.18-.887.5-1.207l.047-.047a2 2 0 011.085-.558l.888-.148A1.77 1.77 0 004 22.5V22a1 1 0 011-1h.5A1.5 1.5 0 007 19.5V19a1 1 0 011-1h.75c.69 0 1.25-.56 1.25-1.25v-.422a2 2 0 01.586-1.414l1.882-1.882A9.993 9.993 0 0112 10c0-5.523 4.477-10 10-10zm.142 4c-.466 0-.933.055-1.389.166-1.465.357-2.005 2.137-1.044 3.251l.105.113 4.656 4.656c1.065 1.065 2.87.61 3.322-.79l.042-.149a5.852 5.852 0 00-1.36-5.332l-.19-.199a5.833 5.833 0 00-3.861-1.71L22.142 4z"/>
        <path fill="#95999D" d="M15.447 17.554c.542.47 1.136.884 1.77 1.23L4 32H2c-.293 0-.572-.063-.823-.177l14.27-14.27z"/>
    </g>
</svg>
