<svg xmlns="http://www.w3.org/2000/svg" xmlns:xlink="http://www.w3.org/1999/xlink" width="230" height="115" viewBox="0 0 230 115">
    <defs>
        <path id="a" d="M.135.643h120.846v21.164H.135z"/>
    </defs>
    <g fill="none" fill-rule="evenodd">
        <path fill="#FFF" d="M201.526 96.296c-31.65 0-81.721-.138-84.155-.232-2.018-.173-3.222-.464-4.181-1.554-1.077-1.225-1.184-2.584-1.27-4.7-.367-9.248-.505-18.114-.432-27.946.02-2.758.02-6.282-.001-10.473 0-.055-.003-.11-.006-.164v-.717c.003-.053.006-.108.006-.163.021-4.192.021-7.715.001-10.473-.073-9.832.065-18.698.43-27.9.088-2.162.195-3.522 1.272-4.747.966-1.097 2.182-1.385 4.228-1.557 5.55-.463 20.84-.729 41.948-.729 9.887 0 18.206.062 21.75.119h.128c3.58-.075 9.307-.122 14.95-.122 12.469 0 22.055.21 25.644.56 1.122.109 1.631.322 2.221.569.598.25 1.052.47 1.208.553.233.157.635.5.72 1.756.392 5.727.324 11.621.26 17.32-.037 3.111-.074 6.328-.038 9.51.06 5.3.02 10.63-.025 15.633.045 5.064.085 10.393.025 15.693-.036 3.182.001 6.4.037 9.51.065 5.7.133 11.593-.259 17.318-.085 1.263-.49 1.603-.72 1.758a16.2 16.2 0 0 1-1.155.531c-.632.265-1.134.475-2.216.586-.496.02-3.537.061-20.37.061"/>
        <path fill="#BBD9FD" d="M196.685 1.857c-5.998 0-11.557.05-14.958.123-3.76-.061-12.141-.12-21.72-.12-15.9 0-35.105.162-42.01.742-2.288.193-4.607.579-6.46 2.696-1.916 2.19-2 4.64-2.087 6.814-.378 9.548-.502 18.528-.431 28.085.021 2.963.018 6.569-.002 10.444h-.006c0 .182.002.36.003.54 0 .18-.002.357-.003.539h.006c.02 3.875.023 7.48.002 10.444-.07 9.557.053 18.537.43 28.085.087 2.174.172 4.624 2.088 6.814 1.853 2.118 4.172 2.503 6.46 2.696 1.24.105 53.922.24 84.02.24 11.702 0 19.986-.02 20.51-.071 1.665-.163 2.545-.547 3.24-.84.73-.306 1.425-.646 1.64-.786 1.263-.823 2.125-2.172 2.272-4.358.613-9.01.126-18.029.228-27.046.06-5.242.023-10.48-.025-15.717.048-5.239.084-10.476.025-15.718-.102-9.017.385-18.036-.228-27.046-.147-2.186-1.009-3.534-2.272-4.358-.215-.141-.91-.48-1.64-.786-.695-.293-1.575-.677-3.24-.84-4.398-.432-15.743-.576-25.842-.576m0 6.684c12.3 0 21.714.202 25.182.542.565.057.74.118 1.138.285.344 5.433.282 10.85.217 16.575-.036 3.133-.073 6.372-.037 9.594.06 5.261.021 10.583-.025 15.583v.12c.046 5 .085 10.322.026 15.583-.037 3.223 0 6.462.036 9.595.065 5.724.127 11.14-.217 16.575-.36.151-.537.216-.984.268-.752.019-4.261.055-20.005.055-30.791 0-80.162-.135-83.585-.228-1.587-.142-1.733-.31-1.822-.41-.3-.344-.373-.963-.44-2.647l-.002-.044c-.363-9.158-.498-17.983-.426-27.774.02-2.787.02-6.23-.002-10.526 0-.07-.002-.138-.004-.206l.001-.264v-.074l-.001-.262c.002-.069.004-.138.004-.207.022-4.296.022-7.74.002-10.525-.072-9.792.063-18.617.426-27.774l.002-.045c.067-1.684.14-2.303.44-2.646.09-.104.244-.278 1.954-.422 5.433-.457 20.538-.718 41.444-.718 9.828 0 18.091.061 21.61.118l.11.001.143-.001c3.54-.075 9.218-.121 14.815-.121"/>
        <g transform="translate(109)">
            <mask id="b" fill="#fff">
                <use xlink:href="#a"/>
            </mask>
            <path fill="#BBD9FD" d="M120.981 21.804s.015-9.597-.301-14.393c-.148-2.256-1.01-3.646-2.273-4.496-.215-.146-.91-.495-1.639-.812-.696-.302-1.576-.698-3.24-.866-7.01-.71-31.672-.666-40.801-.468-10-.168-52.665-.317-63.73.642-2.287.199-4.607.597-6.46 2.782-1.916 2.26-2 4.788-2.087 7.03C.312 14.81.135 21.807.135 21.807l120.846-.003z" mask="url(#b)"/>
        </g>
        <path fill="#FFF" d="M223.764 10.335c-.196-.972-.86-1.87-1.43-2.263-1.555-1.072-3.904-.848-5.046.677-1.15 1.536-1.448 4.023.923 5.538 2.018 1.29 4.653.07 5.41-2.101a3.586 3.586 0 0 0 .143-1.851M212.652 10.335c-.195-.972-.86-1.87-1.43-2.263-1.555-1.072-3.904-.848-5.046.677-1.15 1.536-1.449 4.023.923 5.538 2.018 1.29 4.653.07 5.41-2.101a3.586 3.586 0 0 0 .143-1.851M201.54 10.335c-.196-.972-.86-1.87-1.43-2.263-1.556-1.072-3.905-.848-5.047.677-1.15 1.536-1.448 4.023.924 5.538 2.018 1.29 4.653.07 5.411-2.101a3.594 3.594 0 0 0 .142-1.851"/>
        <path fill="#D4E7FE" d="M135.429 112.273c2.862 1.018 10.204 1.899 16.12 2.25 16.159.964 38.736.44 48.307-1.33 9.642-1.785 10.07-4.485-14.44-5.821-20.872-1.14-45.235.484-50.445 2.9-1.398.65-1.321 1.37.458 2.001"/>
        <g fill="#FFF" opacity=".642">
            <path d="M156.611 54.806l-7.155-12.393c4.581-5.736 11.633-9.411 19.544-9.411 9.152 0 17.154 4.919 21.51 12.256h-20.399a12.872 12.872 0 0 0-1.111-.05c-5.95 0-10.966 4.085-12.389 9.598zm21.34-5.935h14.328a24.932 24.932 0 0 1 1.72 9.13c0 13.713-11.04 24.845-24.715 24.997l10.224-17.709a12.72 12.72 0 0 0 2.285-7.287c0-3.573-1.473-6.808-3.843-9.131zm-18.033 9.13c0-5.007 4.074-9.081 9.082-9.081 5.008 0 9.082 4.074 9.082 9.082 0 5.008-4.074 9.082-9.082 9.082-5.008 0-9.082-4.074-9.082-9.082zm12.509 12.327l-7.157 12.396C153.232 80.924 144 70.541 144 58.002c0-4.454 1.166-8.635 3.208-12.257l10.206 17.678c2.045 4.351 6.469 7.372 11.586 7.372 1.187 0 2.336-.163 3.427-.467z"/>
        </g>
        <path fill="#3281EE" d="M102.613 23.934c-1.433-2.328-5.14-7.857-5.329-8.117-.69-.944-1.487-.938-1.95-.638-.565.358-.735 1.118-.386 1.731v.001c.416.728.818 1.461 1.223 2.195.142.26.283.517.426.775-4.673-3.378-11.462-3.188-13.744-3.01-.438.034-.876.079-1.272.128-.783.034-1.558.097-2.302.186a28.72 28.72 0 0 0-8.4 2.324c-1.917.862-4.832 2.162-4.879 4.712.033.52.258.93.6 1.093.226.107.485.087.735-.084.459-.315 1.532-1.054 2.84-1.687a31.917 31.917 0 0 1 12.048-3.186 31.606 31.606 0 0 1 8.287.575c1.37.281 3.198.714 4.956 1.475-1.295-.215-2.62-.44-3.912-.706-.679-.14-1.274.01-1.626.416a1.19 1.19 0 0 0-.214 1.213c.212.574.785.975 1.574 1.1.413.066.827.137 1.238.208.885.153 1.799.31 2.655.403 2.192.52 4.387.74 6.825.955.183.017.36-.02.512-.1a.875.875 0 0 0 .335-.31c.18-.288.286-.808-.24-1.652"/>
        <g fill="#D4E7FE">
            <path d="M156.611 54.805l-7.155-12.393C154.037 36.676 161.09 33 169 33c9.152 0 17.154 4.92 21.51 12.257h-20.399a12.872 12.872 0 0 0-1.111-.05c-5.95 0-10.966 4.085-12.389 9.598zm21.34-5.935h14.329a24.936 24.936 0 0 1 1.72 9.132c0 13.713-11.04 24.846-24.716 24.998l10.224-17.71a12.72 12.72 0 0 0 2.285-7.288c0-3.573-1.473-6.808-3.843-9.132zm-18.033 9.132c0-5.008 4.074-9.083 9.082-9.083 5.008 0 9.082 4.075 9.082 9.083s-4.074 9.082-9.082 9.082c-5.008 0-9.082-4.074-9.082-9.082zm12.509 12.327l-7.157 12.397C153.232 80.925 144 70.542 144 58.002c0-4.455 1.166-8.636 3.208-12.258l10.206 17.68c2.045 4.351 6.469 7.372 11.586 7.372 1.187 0 2.336-.163 3.427-.467z"/>
        </g>
        <g transform="translate(0 11)">
            <rect width="69" height="69" fill="#297EF1" rx="34.5"/>
            <path fill="#FFF" d="M46.025 51h-23.05C15.819 51 10 45.224 10 38.125a12.75 12.75 0 0 1 3.7-9.004 12.937 12.937 0 0 1 7.73-3.78 12.755 12.755 0 0 1 3.809-7.67A12.947 12.947 0 0 1 34.312 14c3.412 0 6.635 1.302 9.074 3.67a12.765 12.765 0 0 1 3.805 7.632C53.8 25.889 59 31.416 59 38.126 59 45.224 53.177 51 46.024 51h.001z"/>
            <path fill="#297EF1" stroke="#297EF1" d="M42.412 37.958c-.953-.596-1-1.692-1.002-1.74a.55.55 0 0 0-.571-.528.55.55 0 0 0-.552.547c.002.04.018.554.274 1.16-3.394 3.084-8.727 3.088-12.128.02a3.43 3.43 0 0 0 .28-1.179.55.55 0 0 0-.549-.547.557.557 0 0 0-.574.525c0 .044-.046 1.145-1.002 1.741a.526.526 0 0 0-.163.747.577.577 0 0 0 .777.157c.245-.154.45-.329.623-.515 1.89 1.631 4.276 2.447 6.663 2.447 2.392 0 4.785-.819 6.677-2.458.174.188.382.368.634.526a.574.574 0 0 0 .777-.158.528.528 0 0 0-.164-.747v.002z"/>
        </g>
        <g>
            <path fill="#BFC3C8" d="M72.5 45l.35.005c6.626.182 11.963 5.52 12.145 12.145l.005.35-.005.35c-.182 6.624-5.52 11.963-12.145 12.145L72.5 70l-.35-.005a12.45 12.45 0 0 1-4.276-.88l-13.9 14.362A5 5 0 0 1 50.38 85H47.5a2.5 2.5 0 0 1-2.5-2.5v-4.741c0-.566.225-1.109.625-1.509l.058-.058a2.5 2.5 0 0 1 1.357-.699l1.11-.185A2.213 2.213 0 0 0 50 73.125V72.5c0-.69.56-1.25 1.25-1.25h.625c1.036 0 1.875-.84 1.875-1.875v-.625c0-.69.56-1.25 1.25-1.25h.938c.862 0 1.562-.7 1.562-1.563v-.526a2.5 2.5 0 0 1 .732-1.768l2.353-2.353A12.492 12.492 0 0 1 60 57.5C60 50.596 65.596 45 72.5 45zm.177 5c-.582 0-1.166.069-1.736.207-1.832.446-2.506 2.672-1.305 4.065l.132.14 5.82 5.82c1.331 1.332 3.588.763 4.152-.988l.053-.185a7.315 7.315 0 0 0-1.7-6.665l-.238-.249a7.292 7.292 0 0 0-4.826-2.137L72.678 50z"/>
            <path fill="#95999D" d="M64.309 66.942a12.53 12.53 0 0 0 2.213 1.539L50 84.999 47 85c-.225 0-.442-.037-.644-.106l17.953-17.952z"/>
        </g>
    </g>
</svg>
