<svg xmlns="http://www.w3.org/2000/svg" xmlns:xlink="http://www.w3.org/1999/xlink" viewBox="0 0 512 229"><defs><path id="a" d="M254 0a78.03 78.03 0 0 1 75.1 56.86H356a8 8 0 0 1 8 8v162H0v-162a8 8 0 0 1 8-8h170.9A78.03 78.03 0 0 1 254 0z"/><radialGradient id="b" cx="69.42%" cy="-14.94%" r="87.92%" fx="69.42%" fy="-14.94%" gradientTransform="matrix(0 1 -.3625 0 .64 -.844)"><stop offset="0%" stop-color="#61B27C"/><stop offset="64.61%" stop-color="#61B27C" stop-opacity=".64"/><stop offset="75.93%" stop-color="#61B27C" stop-opacity=".24"/><stop offset="85.75%" stop-color="#61B27C" stop-opacity=".08"/><stop offset="100%" stop-color="#61B27C" stop-opacity="0"/></radialGradient><path id="d" d="M254 0a78.03 78.03 0 0 1 75.1 56.86H356a8 8 0 0 1 8 8v162H0v-162a8 8 0 0 1 8-8h170.9A78.03 78.03 0 0 1 254 0z"/><radialGradient id="e" cx="52.64%" cy="81.8%" r="126.49%" fx="52.64%" fy="81.8%" gradientTransform="matrix(0 1 -.4138 0 .865 .292)"><stop offset="0%" stop-color="#32363F"/><stop offset="62.96%" stop-color="#32363F" stop-opacity=".48"/><stop offset="73.25%" stop-color="#32363F" stop-opacity=".24"/><stop offset="100%" stop-color="#32363F" stop-opacity="0"/></radialGradient><polygon id="g" points=".857 .857 364.857 .857 365 60.857 1 60.857"/><circle id="i" cx="78.14" cy="78" r="78"/><circle id="k" cx="78.14" cy="78" r="78"/><circle id="m" cx="78.14" cy="78" r="78"/><linearGradient id="o" x1="50%" x2="50%" y1="0%" y2="100%"><stop offset="0%" stop-color="#32363F" stop-opacity="0"/><stop offset="55.28%" stop-color="#32363F" stop-opacity=".24"/><stop offset="100%" stop-color="#32363F" stop-opacity=".64"/></linearGradient></defs><g fill="none" fill-rule="evenodd" transform="translate(0 -3)"><path fill="#FFFFFF" fill-rule="nonzero" d="M85 63h344a8 8 0 0 1 8 8v160H77V71a8 8 0 0 1 8-8z"/><rect width="348" height="132" x="83" y="99" fill="#CBF7D8" fill-rule="nonzero"/><rect width="193.5" height="24" x="117" y="69" fill="#D6D8DA" fill-rule="nonzero" opacity=".5" rx="12"/><g fill-rule="nonzero" transform="translate(88 70)"><path fill="#EA4335" d="M6.04 9.72L3.18 4.77A9.98 9.98 0 0 1 19.6 5.9h-8.16L11 5.88a5.13 5.13 0 0 0-4.96 3.84z"/><path fill="#FCBC05" d="M14.58 7.35h5.73A10 10 0 0 1 11.11 21l4.1-7.08a5.09 5.09 0 0 0-.63-6.57z"/><path fill="#34A853" d="M12.37 15.93L9.51 20.9A10 10 0 0 1 2.28 6.1l4.09 7.08a5.12 5.12 0 0 0 6 2.76v-.01z"/><path fill="#4285F4" d="M7.37 11a3.64 3.64 0 1 1 7.27-.38 3.64 3.64 0 0 1-7.27.38z"/></g><path fill="#5D6165" fill-rule="nonzero" d="M135.88 74c1.8 0 3.25 1.46 3.25 3.25v1.63h.81a.8.8 0 0 1 .81.8v6.51c0 .44-.36.81-.81.81h-8.12a.82.82 0 0 1-.82-.8h.01v-6.52c0-.43.36-.8.8-.8h.82v-1.63c0-1.8 1.46-3.25 3.25-3.25zm.07 6.9a1.25 1.25 0 0 0-.78 2.23l.1.08.01 1.93a.6.6 0 0 0 1.2.1v-1.96a1.25 1.25 0 0 0-.53-2.38zm-.07-5.27c-.85 0-1.55.82-1.61 1.86l-.01.17v1.22h3.25v-1.22c0-1.13-.73-2.03-1.63-2.03z"/><text fill="#32363F" font-family="Lato-Regular, Lato" font-size="12"><tspan x="146.19" y="85">https://</tspan></text><circle cx="419" cy="82.14" r="3.86" fill="#95999D" fill-rule="nonzero"/><circle cx="406.14" cy="82.14" r="3.86" fill="#95999D" fill-rule="nonzero"/><circle cx="393.29" cy="82.14" r="3.86" fill="#95999D" fill-rule="nonzero"/><path fill="#35CE68" fill-rule="nonzero" d="M231.83 191.91a3.6 3.6 0 0 0-5.66 0 5.28 5.28 0 0 0 0 6.64l12 14.08a3.6 3.6 0 0 0 5.66 0l44-51.62a5.28 5.28 0 0 0 0-6.64 3.6 3.6 0 0 0-5.66 0L241 202.67l-9.17-10.76z"/><path fill="#D6D8DA" fill-rule="nonzero" d="M437 71a8 8 0 0 0-7.75-8H85a8 8 0 0 0-8 7.75V231h-2V71a10 10 0 0 1 9.72-10H429a10 10 0 0 1 10 9.72V231h-2V71z"/><g transform="translate(75 4.143)"><mask id="c" fill="white"><use xlink:href="#a"/></mask><g fill="url(#b)" fill-rule="nonzero" mask="url(#c)"><polygon points=".857 .857 364.857 .857 365 132.857 1 132.857" transform="translate(-1 94)"/></g><mask id="f" fill="white"><use xlink:href="#d"/></mask><g fill="url(#e)" fill-rule="nonzero" mask="url(#f)" opacity=".48"><rect width="232" height="96" x=".86" y=".86" transform="translate(131 -2)"/></g></g><g transform="translate(73.857)"><g transform="translate(.143 .143)"><mask id="h" fill="white"><use xlink:href="#g"/></mask><g mask="url(#h)"><g transform="translate(177 3)"><circle cx="78" cy="78" r="78" fill="#000000" fill-rule="nonzero"/><circle cx="78" cy="78" r="78" fill="#FFFFFF" fill-rule="nonzero"/></g></g></g><g transform="translate(177 3)"><circle cx="78.14" cy="78" r="78" fill="#FFFFFF" fill-rule="nonzero"/><mask id="j" fill="white"><use xlink:href="#i"/></mask><rect width="429.11" height="157.5" x="-135.61" y="115.55" fill="#CBF7D8" fill-rule="nonzero" mask="url(#j)"/><mask id="l" fill="white"><use xlink:href="#k"/></mask><g mask="url(#l)"><g transform="translate(-263.571 34.571)"><rect width="625" height="80" x=".71" y="3.43" fill="#FFFFFF" fill-rule="nonzero"/><rect width="156" height="2" x="263.71" y=".43" fill="#D6D8DA" fill-rule="nonzero" opacity=".64"/><rect width="327" height="60" x=".71" y="13.43" fill="#D6D8DA" fill-rule="nonzero" opacity=".5" rx="30"/><g transform="translate(459.036 15.25)"><path fill="#F1F3F4" fill-rule="nonzero" d="M25.71 0a25.72 25.72 0 0 0 0 51.43 25.72 25.72 0 0 0 0-51.43z"/><path fill="#95999D" fill-rule="nonzero" d="M25.71 28.03c5.12 0 15.36 2.8 15.43 7.92a18.52 18.52 0 0 1-30.85 0c.07-5.12 10.28-7.92 15.42-7.92zm0-20.32a7.71 7.71 0 1 1 0 15.43 7.71 7.71 0 0 1 0-15.43z"/></g><path fill="#95999D" fill-rule="nonzero" d="M307.71 39.86l-11.5-.98-4.5-10.45-4.5 10.47-11.5.96 8.74 7.47-2.62 11.1 9.88-5.9 9.9 5.9-2.62-11.1 8.72-7.47zm-16 9.73l-6.01 3.58 1.6-6.76-5.31-4.54 7-.6 2.72-6.37 2.74 6.38 7 .6-5.3 4.55 1.6 6.76-6.04-3.6z"/><g transform="translate(341.714 21.286)"><path fill="#297EF1" fill-rule="nonzero" d="M14.83 42.14C6.65 42.14 0 35.64 0 27.65c0-3.8 1.5-7.4 4.23-10.13a14.88 14.88 0 0 1 8.83-4.25c.4-3.28 1.91-6.3 4.36-8.64C20.22 1.96 23.92.48 27.79.5c3.9 0 7.58 1.47 10.36 4.13a14.29 14.29 0 0 1 4.35 8.6c7.56.65 13.5 6.87 13.5 14.42 0 8-6.65 14.5-14.83 14.5H14.83v-.01z"/><path fill="#FFFFFF" fill-rule="nonzero" stroke="#FFFFFF" d="M36.72 27.6a2.41 2.41 0 0 1-1.1-1.89.6.6 0 0 0-.63-.57.6.6 0 0 0-.61.6c0 .04.02.6.3 1.26a10.17 10.17 0 0 1-13.37.02c.3-.67.31-1.24.31-1.28a.6.6 0 0 0-.6-.6.61.61 0 0 0-.64.57c0 .05-.05 1.25-1.1 1.9a.57.57 0 0 0-.18.8c.2.27.57.35.86.17.27-.16.5-.35.68-.56A11.32 11.32 0 0 0 28 30.68c2.63 0 5.27-.89 7.36-2.67.19.2.42.4.7.57.28.17.65.1.85-.17a.57.57 0 0 0-.18-.8h0l-.01-.01z"/></g></g></g><mask id="n" fill="white"><use xlink:href="#m"/></mask><path fill="#FFFFFF" fill-rule="nonzero" d="M78.14 0a78 78 0 1 1 0 156 78 78 0 0 1 0-156zm0 2a76 76 0 1 0 0 152 76 76 0 0 0 0-152z" mask="url(#n)"/></g></g><rect width="360" height="48" x="77" y="183" fill="url(#o)" fill-rule="nonzero" opacity="0" style="mix-blend-mode:multiply"/><rect width="512" height="1" y="231" fill="#D6D8DA" fill-rule="nonzero"/></g></svg>