<svg xmlns="http://www.w3.org/2000/svg" xmlns:xlink="http://www.w3.org/1999/xlink" width="292" height="191"><defs><path id="a" d="M.102.484h40.415V15.3H.102z"/><path id="c" d="M0 .34h40.414v14.815H0z"/><path id="e" d="M0 .004h5.475v27.62H0z"/><path id="g" d="M0 .004h5.475v18.65H0z"/><path id="i" d="M0 0h15.201v27.625H0z"/></defs><g fill="none" fill-rule="evenodd"><path fill="#BBD9FD" d="M103.976 187.933c3.475 1.145 12.394 2.135 19.584 2.532 19.627 1.081 47.055.495 58.68-1.498 11.714-2.007 12.237-5.045-17.543-6.55-25.353-1.28-54.948.548-61.277 3.265-1.7.73-1.605 1.54.556 2.25"/><path fill="#3281EE" d="M145.344 93.064a27.86 27.86 0 00-6.242.935c-10.621 2.855-18.314 11.715-19.602 22.573a2.488 2.488 0 01-2.227 2.183c-5.775.568-11.94 3.86-16.494 8.805-4.004 4.343-6.353 9.418-6.793 14.676a20.612 20.612 0 00.305 5.583l.018.111c.343 2.38 1.493 6.292 3.213 9.258 3.874 6.692 10.287 10.374 21.446 12.315 5.127.893 9.982 1.525 25.849 1.525l.501.002.555-.002c15.865 0 20.72-.632 25.847-1.525 11.16-1.94 17.573-5.623 21.446-12.315 1.72-2.965 2.87-6.877 3.214-9.259a2.51 2.51 0 01.018-.11 20.58 20.58 0 00.304-5.582v-.002c-.44-5.256-2.788-10.331-6.79-14.674-4.558-4.946-10.724-8.238-16.496-8.806a2.488 2.488 0 01-2.228-2.183C169.9 105.714 162.208 96.854 151.59 94a27.863 27.863 0 00-6.245-.936zm-.009 82.943h-.036l-.482-.002c-14.812 0-20.614-.538-26.702-1.598-8.478-1.475-18.97-4.48-24.9-14.726-2.187-3.773-3.424-8.261-3.824-10.986a25.558 25.558 0 01-.365-6.876c.534-6.37 3.332-12.468 8.093-17.632 4.939-5.363 11.307-8.98 17.725-10.117 2.163-12.009 10.998-21.66 22.964-24.877a32.737 32.737 0 017.253-1.098c.092-.01.18-.018.277-.014.097-.003.2.004.298.014 2.462.096 4.9.465 7.247 1.099 11.963 3.216 20.797 12.867 22.962 24.876 6.415 1.138 12.784 4.754 17.726 10.117 4.759 5.165 7.557 11.262 8.091 17.63.19 2.264.069 4.577-.364 6.878-.4 2.726-1.638 7.216-3.826 10.988-5.928 10.243-16.42 13.25-24.898 14.724-6.089 1.06-11.89 1.598-26.701 1.598l-.479.002h-.059z"/><path fill="#3281EE" d="M164.238 143.363c-1.11-.82-2.412-2.464-2.367-3.276.048-.841-.308-1.575-.98-2.015-.713-.467-1.682-.513-2.47-.117a2.35 2.35 0 00-1.293 1.993c-.067 1.187.289 2.2.806 3.109-7.745 4.083-18.043 3.923-25.358-.45a5.997 5.997 0 00.556-3.39c-.186-1.47-1.56-2.217-2.728-2.071-1.223.153-2 1.153-1.845 2.376.178 1.411-1 2.408-2.56 3.567a2.334 2.334 0 00-.935 2.165c.098.854.64 1.612 1.38 1.93.26.114.53.17.802.17.448 0 .895-.152 1.295-.449.377-.28.825-.614 1.29-1 4.62 2.806 10.22 4.218 15.83 4.218 5.233 0 10.471-1.229 14.918-3.693.32.308.664.607 1.044.888.42.31.886.462 1.341.462.664 0 1.306-.32 1.759-.934.734-.993.754-2.568-.485-3.483"/><path fill="#BBD9FD" d="M175.715 89.208c.405 1.54 1.172 1.55 1.498 1.147 1.976-2.452 3.938-4.928 5.526-7.628 1.111-1.455 2.096-3 3.14-4.504 1.43-2.054-.65-3.615-1.89-1.647-1.655 2.626-3.464 5.151-5.197 7.727.021-.17.04-.342.063-.515.652-3.478 2.36-6.739 4.233-9.708 2.075-3.293 4.56-6.37 7.475-8.926 3.971-3.482 5.283-4.794 9.874-6.761 1.976-.847.608-3.861-1.907-2.865-3.65 1.446-4.425 2.155-7.47 4.63a39.036 39.036 0 00-2.352 2.075c-.463.372-.92.757-1.366 1.153-5.7 5.048-11.386 12.996-9.793 20.997-.21-.773-.455-1.541-.683-2.306-.69-2.323-1.454-4.62-2.15-6.94-.386-1.289-2.447-1.27-2.046.95.073.41 2.078 9.436 3.045 13.12z" opacity=".502"/><path fill="#BBD9FD" d="M111.148 84.923c-.227.765-.472 1.533-.683 2.306 1.592-8-4.094-15.947-9.793-20.996-.446-.395-.902-.78-1.365-1.153a39.035 39.035 0 00-2.353-2.075c-3.045-2.475-4.08-3.3-6.703-5.268-4.042-3.031-6.307.9-4.382 1.921 5.038 2.67 7.23 4.358 11.582 8.344a43.688 43.688 0 017.476 8.925c1.87 2.968 3.58 6.23 4.232 9.708.022.172.042.344.062.516-1.731-2.576-3.54-5.101-5.196-7.728-1.24-1.967-3.32-.407-1.891 1.647 1.045 1.504 2.029 3.048 3.141 4.504 1.587 2.7 3.55 5.175 5.526 7.627.327.404 1.094.393 1.498-1.146.967-3.686 2.971-12.71 3.045-13.12.401-2.22-1.66-2.24-2.045-.952-.695 2.321-1.46 4.619-2.151 6.94z" opacity=".501"/><g transform="translate(194.598 94.595)"><mask id="b" fill="#fff"><use xlink:href="#a"/></mask><path fill="#BBD9FD" d="M.262 13.783c-.43 1.26.1 1.62.514 1.49 2.507-.793 5.018-1.612 7.371-2.76 1.446-.5 2.844-1.117 4.266-1.684 1.944-.772 1.218-2.82-.555-2.02-2.366 1.063-4.791 1.989-7.187 2.982.092-.112.186-.224.282-.331C7.01 9.342 9.71 7.855 12.385 6.658a36.126 36.126 0 019.33-2.764c4.87-.77 7.565-1.251 12.326-.088 1.739.419 2.312-2.173.102-2.637A32.044 32.044 0 0024.366.64c-.868.087-1.736.208-2.597.358a33.5 33.5 0 00-1.48.176c-6.305.88-13.934 3.79-16.52 10.099.21-.638.392-1.286.59-1.924.591-1.935 1.12-3.89 1.705-5.829.326-1.074-1.115-2.011-1.863-.281-.136.32-2.91 7.53-3.939 10.544z" mask="url(#b)"/></g><g transform="translate(54.834 100.488)"><mask id="d" fill="#fff"><use xlink:href="#c"/></mask><path fill="#BBD9FD" d="M36.16 9.205c.196.638.378 1.286.587 1.921C34.163 4.82 26.531 1.908 20.23 1.028a32.48 32.48 0 00-1.483-.174A33.582 33.582 0 0016.15.497a32.215 32.215 0 00-9.776.524c-2.211.467-1.06 3.066.84 2.794 4.592-.656 6.717-.833 11.59-.07a36.58 36.58 0 019.33 2.766c2.673 1.2 5.37 2.684 7.432 4.805l.282.332c-2.399-.996-4.825-1.92-7.19-2.985-1.772-.797-2.5 1.252-.556 2.021 1.422.566 2.822 1.186 4.269 1.687 2.353 1.145 4.861 1.966 7.37 2.76.415.13.944-.233.512-1.492-1.028-3.014-3.799-10.223-3.937-10.543-.747-1.731-2.19-.794-1.865.282.589 1.937 1.117 3.892 1.709 5.827z" mask="url(#d)" opacity=".502"/></g><path fill="#BBD9FD" d="M148.7 68.708c-1.096 1.74-2.252 3.455-3.344 5.199-.362.574-.739 1.147-1.085 1.73 1.84-3.615 1.728-14.049 1.03-17.847-.504-2.738-2.608-2.495-2.667.894-.048 2.777.914 13.431.682 16.29-.02.14-.043.28-.064.416-.871-2.3-1.813-4.57-2.607-6.898-.594-1.744-2.678-.81-1.946 1.033.536 1.347 1.013 2.718 1.614 4.036.722 2.38 1.802 4.632 2.904 6.872.182.365.823.471 1.503-.692 1.632-2.79 5.32-9.663 5.472-9.976.832-1.706-.88-2.024-1.491-1.057" opacity=".502"/><path fill="#FF7900" d="M24.375 132.511H52v-27.625H24.375z"/><path d="M33.796 129.024a.46.46 0 00.455.5c.352-.014.685-.157.938-.402v-.91c-.944.121-1.393.363-1.393.818v-.006zm1.416.81a2.206 2.206 0 01-1.266.38 1.065 1.065 0 01-1.151-1.115c0-.858.788-1.313 2.417-1.497v-.22c0-.275-.213-.436-.604-.436a1.15 1.15 0 00-.933.437l-.667-.386c.383-.514 1-.797 1.64-.753 1.002 0 1.56.437 1.56 1.151v2.791h-.898l-.098-.351zm1.79-3.4l.834-.12.092.46a2.12 2.12 0 011.318-.536 1.088 1.088 0 011.203 1.255v2.675h-1.013v-2.497c0-.472-.12-.685-.489-.685-.355.025-.69.177-.944.426v2.756h-1.001v-3.734zm10.906 1.306a.736.736 0 00-.777-.817c-.455 0-.742.293-.777.817h1.554zm-.76 2.504c-1.15 0-1.807-.731-1.807-1.997 0-1.267.68-2.009 1.79-2.009 1.11 0 1.773.708 1.773 1.963v.19H46.33c0 .73.311 1.099.91 1.099a.983.983 0 00.869-.49l.742.415a1.854 1.854 0 01-1.704.829zm-19.372-3.16c-.753 0-.897.68-.897 1.151 0 .472.144 1.151.897 1.151.754 0 .893-.685.893-1.15 0-.468-.139-1.152-.893-1.152m0 3.2a1.842 1.842 0 01-1.905-2.026 1.842 1.842 0 011.905-2.031 1.841 1.841 0 011.9 2.031 1.836 1.836 0 01-1.9 2.026m2.596-3.96h.961v.432a1.489 1.489 0 011.191-.53v.95h-.051c-.438 0-.921.07-1.07.409v2.555h-1.031v-3.816zm14.359-.011v3.643c0 .644-.052 1.697-1.882 1.726-.754 0-1.456-.293-1.6-.955l1.002-.16c.04.19.155.38.725.38s.777-.255.777-.858v-.455a1.02 1.02 0 01-.996.575c-.892 0-1.6-.622-1.6-1.922 0-1.3.725-2.009 1.543-2.009.817 0 1.053.352 1.116.535l.086-.46.83-.04zm-1.807 3.033c.771 0 .835-.783.835-1.295 0-.512-.294-1.088-.84-1.088-.363 0-.772.265-.772 1.151 0 .455.035 1.237.777 1.232zm8.034-3.217h-.213v-1.048l-.414 1.06h-.132l-.42-1.06v1.06h-.208v-1.267h.323l.38.967.373-.967h.323l-.012 1.255zm-1.657-1.1h-.397v1.1h-.213v-1.1h-.397v-.172H49.3v.173z" fill="#FFF"/><path fill="#BBD9FD" d="M35.75 80.511l.455.006c8.613.237 15.552 7.176 15.789 15.79l.006.454-.006.455c-.237 8.612-7.176 15.552-15.79 15.789l-.454.006-.455-.006a16.186 16.186 0 01-5.56-1.143l-18.07 18.67a6.5 6.5 0 01-4.67 1.98H3.25a3.25 3.25 0 01-3.25-3.25v-6.164c0-.736.292-1.442.813-1.962l.076-.076a3.25 3.25 0 011.763-.908l1.444-.24a2.877 2.877 0 002.404-2.838v-.813c0-.897.728-1.625 1.625-1.625h.813a2.437 2.437 0 002.437-2.437v-.813c0-.897.728-1.625 1.625-1.625h1.219c1.122 0 2.031-.91 2.031-2.031v-.685c0-.862.342-1.689.952-2.298l3.058-3.059a16.24 16.24 0 01-.76-4.927c0-8.975 7.275-16.25 16.25-16.25zm.23 6.5c-.756 0-1.515.09-2.256.27-2.382.58-3.258 3.473-1.697 5.283l.17.183 7.567 7.566c1.73 1.731 4.664.992 5.398-1.284l.068-.241a9.51 9.51 0 00-2.21-8.665l-.309-.323a9.48 9.48 0 00-6.274-2.778l-.456-.01z"/><path fill="#3281EE" d="M25.102 109.036a16.29 16.29 0 002.877 2L6.5 132.511H2c-.118 0-.233-.01-.345-.03l23.447-23.445z"/><path fill="#0062AE" fill-rule="nonzero" d="M83.087 42.436c.834-1.392 1.02-1.416 1.08-1.998.048-.456-1.026-.966-1.644-1.386a3.462 3.462 0 00-1.632-.6c-.276 0-.642.048-.6-.096.378-1.116-.27-1.386-.528-1.44v-.6h-.108v-.096H68.95a10.032 10.032 0 00-1.8-.306c-.27 0-.846.3-1.038.306a1.266 1.266 0 01-.54-.198c-.168-.144-.33-.48-1.2-.324a1.07 1.07 0 00-.732.522h-4.8v.108h-.108v6a.954.954 0 00-.504.144c-.054.036-.318.132-.366.336-.168.144-.216.45-.108.558 0 .072-.108.444.216.552a.486.486 0 01-.156.75 4.968 4.968 0 00-1.404.558c-2.292 1.146-.156 1.704.234 1.74.564.048.69.096.504.678-.1.459-.093.935.018 1.392-.456 0-.516.498-.504.834-.294 1.038.6.798.87.348.84.378 1.14-.894 1.2-.852v.822a5.266 5.266 0 01-.288.492c-.402.87-.06.522-.084.894-.024.372 0 .6.372.696v4.992h.108v.12h3.516c.062.041.126.08.192.114.402.18.438.192.546 0a.378.378 0 00.048-.138h16.512v-.12h.114v-6.534c.786 0 .522-.198.6-.93.078-.732.186-1.8.186-1.728.096.738.372 2.004.264 2.166-.1.21-.267.384-.474.492-.396.24-.396.372-.384.402.012.03-.06.24.432.252a2.778 2.778 0 001.128-.354c.18-.096.42-.048.516-.36a3.66 3.66 0 000-.834 9 9 0 00.204-2.466c.426-1.026.354-3.33.342-3.468.384-.66.564-.798.528-1.434l-.024-.006zm-20.172 14.4a.15.15 0 010-.192v-.048.24zm.216-.6c.333-.49.805-.868 1.356-1.086.438-.15 1.89-.642 2.532-.792v2.82H63.13V56.2v.036zm15.984-12.84c-.102.395-.182.795-.24 1.2h-1.962c.349-.265.674-.56.972-.882.528-.18.3-.48.156-.678a.636.636 0 00-.75-.036c-.654 0-.156.264-.252.39-.198.192-1.044.6-1.344.81l-.12.072v-3.528c1.032.432 2.754.24 3 .426.465.628.662 1.416.546 2.19l-.006.036zm-.276 2.04c-.12 1.506.348 2.646.432 3.384h-3.696v-3.384a4.434 4.434 0 001.062-.678h2.208c-.03.342 0 .45 0 .654l-.006.024zM60.1 47.308a1.584 1.584 0 01.252-1.134c.313-.221.654-.4 1.014-.534a4.512 4.512 0 001.524-.714v2.724a.792.792 0 01-.18 0c-.414-.06-.438.06-.414.15.024.09.036.06-.372.036-.63 0-.426.42-.132.54.357.107.726.167 1.098.18v.27h-2.514c-.078-.906-.258-1.134-.276-1.5v-.018zm3.744-5.472c.072-.18-.108-.462 0-.678.138-.21.29-.41.456-.6h1.8a2.8 2.8 0 00.492.048 1.56 1.56 0 00.288-.048h.108v3.972h-3.402a.642.642 0 00.21-.216c.096-.252.072-.498-.108-.51-.39.204-.186.036-.366.06a1.14 1.14 0 01-.192.12V42.58a4.11 4.11 0 00.714-.744zm3.948-3.216c.037-.193.113-.377.222-.54.072-.18.36-.522.372-.702 0 0 .426.036.546.036l.834-.048c.252 0 .72.168.918.156h.516v2.844h-3.9a2.2 2.2 0 00.528-.708c.07-.339.053-.69-.048-1.02l.012-.018zm7.566 2.016v3.672a.378.378 0 01-.204 0c-.084-.036-.6-.258-.666-.27-.066-.012-.06.066-.666-.252a1.908 1.908 0 00-1.512-.336c-.552.072-.732.168-.732-.06s.312-.402.312-.402c.42-.144.24-.408.204-.48a1.272 1.272 0 00-.108-.474c.216-.192-.204-.384-.276-.492a1.974 1.974 0 00-.282-.6v-.336h3.828l.102.054v-.024zm-12.228 4.2l.072-.036h3.816v.972c-.504.348-.768.6-1.338.948-.69.407-1.426.735-2.19.978 0 0-.228.09-.324 0h-.036v-2.862zm4.11-.036h1.278l-1.278.828V44.8zm3.972-4.05a.852.852 0 00-.762-.042 2.91 2.91 0 00-1.566 1.002.84.84 0 00-.366.432c-.036.174.18.318 0 .666a.546.546 0 000 .63c0 .072.048.408.264.468.6.06.414.12.678.222a4.5 4.5 0 01-.6.456h-1.62v-4.002h3.972v.168zm-8.082 7.8c.066-.096.228-.216.738-.198 1.368.048 2.556-.78 3.15-1.104v1.578H63.13v-.276zm4.11-1.41c.564-.264 1.8-.936 2.052-.852.446.413.754.953.882 1.548-.114.354-.474.6-.636 1.002H67.24v-1.716.018zm2.226 1.896c-.3 1.11.126 1.026 0 1.656-.036.204-1.014.822-1.716 1.596-.15.167-.323.311-.516.426v-3.678h2.232zm1.746 3.45v.474h-.534a5.04 5.04 0 00.534-.486v.012zm.216-.21c.215-.271.445-.53.69-.774.108 0 .306 0 .942.264 1.596.69 1.632.36 1.896.666.047.179.105.355.174.528h-3.702v-.696.012zm3.93-1.914a40.699 40.699 0 01-1.866-1.326h1.866v1.326zM73.21 48.82l-.138-.108c.005-.294.033-.587.084-.876a3.692 3.692 0 01.258-1.44c.336-.216.252-.702.348-.942a8.03 8.03 0 001.596 0v3.324l-2.148.042zm.468-9.084c-.084 0-.276.06-.228.12.216.264.792.144.978.24l.468.276h-3.468v-2.856a2.4 2.4 0 01.498.054c.18.072.954.498 1.062.438.108-.06-.108-.216-.084-.294.024-.078.678.078.762-.108.084-.186-.486-.42-.678-.48-.192-.06-.666-.06-.822-.09-.156-.03-.426-.174-.738-.276v-.324h3.93v3.348a2.32 2.32 0 01-.846-.306 1.65 1.65 0 00-1.086-.396s-.462.036-.45.276c.252.083.489.207.702.366v.012zm-2.466-3.048a1.296 1.296 0 00-.246-.048c-.108 0-.774-.144-.894-.168l-.162-.036h1.302v.252zm-6.75 3.672c.048-.126.054-.42.12-.432.066-.012.396.234.864.432h-.984zm-1.548-.558c-.036.186-.078.378-.114.558h-3.834v-3.924h3.966v3.366h-.018zm-.168.78a10.2 10.2 0 01-.27 1.014c0 .048-.312.492-.42.66-.108.168-.258.21-.342.306-.084.096-.06.276.15.336s.456-.18.528-.168c.072.012 0 .192.144.192a.768.768 0 00.378-.174v1.422c-.054.12-.072.084-.246.156-.37.136-.764.2-1.158.192l-.522.036h-1.464a.12.12 0 01-.054-.096c.384-.45.192-.498.264-.702.037-.238.049-.48.036-.72a.672.672 0 00-.096-.468 1.614 1.614 0 00-.348-.132c-.108 0-.21-.126-.378-.156v-1.698h3.798zm-3.18 11.538c.084-.174-.36-.6-.132-.996.228-.396.99-1.05.978-1.488v-.6h2.52v3.924h-3.966v-.66c.372.036.498-.024.6-.18zm3.6-3.096h3.888v3.792a2.208 2.208 0 01-.414.132h-3.51v-3.912l.036-.012zm2.568 4.146c-.51.222-1.266.948-2.316 1.524l-.252.126v-1.65h2.568zm1.542 1.11c1.326-.12 1.2-.384 1.716-.522.494-.127.965-.33 1.398-.6h.846v3.972H67.24l.036-2.85zm4.2-1.11h3.792c.042.096.09.192.138.282v3.69h-3.978V53.17h.048zm4.098.666c.191.34.423.656.69.942.403.347.672.825.762 1.35 0 .45-.294.798.498 1.002h-1.95v-3.294zm3.972 3a1.854 1.854 0 00-.552-.288 2.316 2.316 0 01-1.248-1.2 13.926 13.926 0 01-.828-2.232h2.628v3.72zm-2.694-3.918a10.077 10.077 0 01-.216-.918 2.022 2.022 0 00-1.062-1.536v-1.428h3.714c.048.6-.066.846-.84 1.308-.774.462.156.432.156.432s.048-.066.942-.06v2.244l-2.694-.042zm1.878-15.852c-.45.252-.27.564-.354.708-.084.144-.264.234-.264.402s.18.192.18.204c0 .276.036.486.036.546 0 .216.264.192.228.252-.036.06-.492.216-.81.42a1.56 1.56 0 01-.78.318 5.922 5.922 0 01-1.2-.072h-.168v-3.408h3.948v.462a1.368 1.368 0 00-.816.168zm-15.24-.03c.065.477.41.87.876.996.258.036.246-.048.474-.096.228-.048.252.06.348.036.096-.024 0-.084.132-.12.132-.036.39-.048.462-.186.072-.138.192-.24.192-.24-.252 1.014-.336 1.002-.336 1.002-1.2-.312-2.028-.252-2.238-.096a.45.45 0 00-.24.294v-2.19h.426a1.23 1.23 0 00-.06.6h-.036zm-4.524 20.106V53.17h3.966v1.758a6.132 6.132 0 01-1.356.486c-.6.222-.288.6-.12.678.098.258.218.507.36.744.08.121.172.234.276.336l-3.126-.03z"/><path fill="#BBD9FD" d="M67.37 8.946l.448.006c8.467.233 15.288 7.054 15.52 15.521l.007.447-.006.447c-.233 8.466-7.054 15.289-15.521 15.521l-.447.007-.448-.007a15.912 15.912 0 01-5.465-1.123L43.695 58.118a6.39 6.39 0 01-4.592 1.946h-3.681a3.195 3.195 0 01-3.195-3.195V50.81c0-.723.287-1.417.799-1.928l.074-.075a3.195 3.195 0 011.734-.892l1.419-.237a2.829 2.829 0 002.364-2.79v-.799c0-.882.715-1.597 1.597-1.597h.799a2.396 2.396 0 002.396-2.396v-.799c0-.882.715-1.597 1.597-1.597h1.198a1.997 1.997 0 001.997-1.997v-.674c0-.847.337-1.66.936-2.259l3.007-3.007a15.964 15.964 0 01-.748-4.843c0-8.823 7.152-15.974 15.975-15.974zm.227 6.39c-.744 0-1.49.087-2.218.265-2.341.57-3.203 3.414-1.668 5.193l.168.18 7.437 7.438c1.702 1.702 4.586.975 5.307-1.263l.067-.237a9.348 9.348 0 00-2.172-8.517l-.304-.318a9.318 9.318 0 00-6.168-2.731l-.449-.01z"/><path fill="#3281EE" d="M56.903 36.987a16.013 16.013 0 002.829 1.966l-21.116 21.11h-4.39c-.125 0-.247-.01-.366-.033l23.043-23.043z"/><g><path fill="#010101" d="M155.688 37.292c0 .642.16 1.156.482 1.543.32.387.753.58 1.296.58.05 0 .12-.008.21-.024.09-.017.152-.025.185-.025.691-.181 1.226-.626 1.604-1.333a3.86 3.86 0 00.408-1.025c.09-.37.14-.67.148-.9.008-.231.012-.61.012-1.137v-.617c-.954 0-1.678.066-2.172.198-1.449.411-2.173 1.325-2.173 2.74m-4.246.494c0-1.136.28-2.107.84-2.913.559-.807 1.324-1.416 2.295-1.827.89-.379 1.984-.65 3.284-.815.444-.05 1.168-.115 2.172-.197v-.42c0-1.053-.115-1.761-.345-2.123-.346-.494-.89-.74-1.63-.74h-.197a2.702 2.702 0 00-1.407.518c-.395.296-.65.707-.766 1.234-.066.33-.23.518-.493.568l-2.84-.346c-.28-.066-.42-.214-.42-.444a.75.75 0 01.025-.173c.28-1.465.967-2.551 2.062-3.259 1.094-.708 2.374-1.103 3.839-1.185h.617c1.876 0 3.341.486 4.394 1.457.166.165.318.343.457.53.14.19.251.359.333.507.083.148.157.362.223.642.065.28.115.473.148.58.033.107.057.337.074.69.016.355.024.565.024.63v5.975c0 .428.062.819.186 1.173.123.353.242.608.358.765.115.156.304.407.567.753.1.148.148.28.148.395 0 .131-.065.247-.197.345a1440.755 1440.755 0 01-2.222 1.926c-.197.148-.436.165-.716.05a8.347 8.347 0 01-.605-.568 20.902 20.902 0 01-.37-.395 5.514 5.514 0 01-.358-.482 10.1 10.1 0 00-.346-.481c-.921 1.004-1.826 1.63-2.715 1.876-.56.165-1.251.247-2.074.247-1.267 0-2.308-.39-3.123-1.173-.815-.781-1.222-1.888-1.222-3.32"/><path fill="#F90" d="M144.011 44.822c.082-.132.214-.14.395-.025 4.115 2.387 8.591 3.58 13.43 3.58 3.226 0 6.41-.6 9.554-1.802.082-.033.202-.083.358-.149.157-.065.268-.115.333-.148.247-.098.44-.049.58.148.14.198.095.379-.135.544-.296.214-.675.46-1.136.74-1.415.84-2.995 1.49-4.74 1.95-1.744.461-3.448.692-5.11.692-2.568 0-4.995-.449-7.283-1.346a20.054 20.054 0 01-6.147-3.79c-.099-.082-.148-.164-.148-.246 0-.05.016-.099.049-.148"/><path fill="#F90" d="M166.057 45.241a.773.773 0 01.148-.197c.412-.28.807-.47 1.185-.568a8.048 8.048 0 011.827-.271c.165-.017.321-.009.47.024.74.066 1.184.19 1.332.37.066.1.099.247.099.445v.173c0 .576-.156 1.255-.469 2.037-.313.781-.749 1.41-1.308 1.888-.083.066-.157.099-.223.099a.219.219 0 01-.098-.025c-.1-.05-.124-.14-.074-.271.608-1.432.913-2.428.913-2.988 0-.18-.033-.312-.099-.395-.164-.197-.625-.296-1.382-.296-.28 0-.61.017-.988.05-.411.049-.79.098-1.135.148-.1 0-.165-.017-.198-.05s-.041-.066-.025-.098a.19.19 0 01.025-.075"/><path fill="#BBD9FD" d="M155.144 0l.447.006c8.467.233 15.288 7.054 15.521 15.521l.006.447-.006.448c-.233 8.465-7.054 15.288-15.521 15.52l-.447.007-.447-.006a15.912 15.912 0 01-5.466-1.124l-17.763 18.353a6.39 6.39 0 01-4.592 1.946h-3.681A3.195 3.195 0 01120 47.923v-6.059c0-.723.287-1.416.799-1.928l.074-.075a3.195 3.195 0 011.734-.892l1.42-.236a2.829 2.829 0 002.363-2.79v-.8c0-.881.715-1.597 1.597-1.597h.799a2.396 2.396 0 002.396-2.396v-.799c0-.882.715-1.597 1.598-1.597h1.198a1.997 1.997 0 001.996-1.997v-.673c0-.848.337-1.66.936-2.26l3.007-3.006a15.964 15.964 0 01-.748-4.844C139.17 7.152 146.321 0 155.144 0zm.227 6.39c-.745 0-1.49.088-2.22.265-2.34.57-3.202 3.414-1.667 5.194l.168.18 7.437 7.437c1.702 1.702 4.586.975 5.307-1.263l.067-.237a9.348 9.348 0 00-2.172-8.517l-.304-.318a9.318 9.318 0 00-6.168-2.73l-.448-.011z"/><path fill="#3281EE" d="M144.676 28.041a16.013 16.013 0 002.829 1.966l-21.116 21.111H122a2.02 2.02 0 01-.367-.033l23.043-23.044z"/></g><g><g transform="translate(236.418 32.043)"><mask id="f" fill="#fff"><use xlink:href="#e"/></mask><path fill="#B1060F" d="M0 .004v13.8c0 7.591.007 13.809.018 13.82.011.01.48-.037 1.047-.099a87.832 87.832 0 011.738-.174 99.157 99.157 0 012.589-.167c.062 0 .065-.31.072-5.847l.011-5.833-.004-.01v.007L0 .004z" mask="url(#f)"/></g><g transform="translate(236.418 32.043)"><mask id="h" fill="#fff"><use xlink:href="#g"/></mask><path fill="#9D030F" d="M5.469 18.654l.006-3.15-.004-.01v.007L0 .004z" mask="url(#h)"/></g><path fill="#B1060F" d="M246.216 32.065l-.01 6.104-.012 6.101 5.425 15.392c-.003.004-.018.005-.041.006.027 0 .044-.002.048-.006.018-.014.022-6.228.018-13.811l-.01-13.786h-5.418z"/><path fill="#9D030F" d="M246.2 41.185l-.006 3.085 5.193 14.735z"/><g transform="translate(236.418 32.043)"><mask id="j" fill="#fff"><use xlink:href="#i"/></mask><path fill="#E50914" d="M0 .004L5.47 15.5v-.007l.433 1.221A4172.536 4172.536 0 009.605 27.17c.004.004.368.025.808.047 1.33.066 2.981.208 4.235.364.287.036.538.055.553.04L9.776 12.227v.004l-.502-1.417-2.791-7.885c-.532-1.5-.982-2.77-1-2.827L5.445 0H2.723L0 .004z" mask="url(#j)"/></g><path fill="#BBD9FD" d="M241.75 7.668l.455.006c8.613.237 15.552 7.175 15.789 15.789l.006.455-.006.455c-.237 8.611-7.176 15.552-15.79 15.788l-.454.007-.455-.007a16.186 16.186 0 01-5.56-1.143l-18.07 18.67a6.5 6.5 0 01-4.67 1.98h-3.745a3.25 3.25 0 01-3.25-3.25v-6.164c0-.735.292-1.441.812-1.961l.077-.076a3.25 3.25 0 011.763-.908l1.444-.24a2.877 2.877 0 002.404-2.839v-.812c0-.898.728-1.625 1.625-1.625h.813a2.437 2.437 0 002.437-2.438v-.812c0-.898.728-1.625 1.625-1.625h1.219c1.122 0 2.031-.91 2.031-2.032v-.685c0-.862.342-1.688.952-2.298l3.058-3.058a16.24 16.24 0 01-.76-4.927c0-8.975 7.275-16.25 16.25-16.25zm.23 6.5c-.756 0-1.515.09-2.256.27-2.382.58-3.258 3.473-1.697 5.283l.17.183 7.567 7.566c1.73 1.731 4.664.992 5.398-1.285l.068-.24a9.51 9.51 0 00-2.21-8.665l-.309-.324a9.48 9.48 0 00-6.274-2.778l-.456-.01z"/><path fill="#3281EE" d="M231.102 36.193a16.29 16.29 0 002.877 2L212.5 59.668H208c-.118 0-.233-.01-.345-.03l23.447-23.445z"/></g><g><g fill-rule="nonzero"><path fill="#FBBC05" d="M290.986 114.715l-13.543-.057v5.525h7.807c-1.14 3.216-4.2 5.525-7.807 5.525a8.286 8.286 0 01-8.287-8.287 8.286 8.286 0 018.287-8.288c2.112 0 4.036.796 5.498 2.1l3.906-3.907a13.743 13.743 0 00-9.404-3.718c-7.63 0-13.812 6.183-13.812 13.813 0 7.629 6.183 13.812 13.812 13.812 7.63 0 13.813-6.183 13.813-13.812 0-.926-.095-1.83-.27-2.706z"/><path fill="#EA4335" d="M265.222 110.992l4.54 3.329a8.282 8.282 0 017.681-5.188c2.112 0 4.036.796 5.498 2.1l3.906-3.907a13.743 13.743 0 00-9.404-3.718c-5.306 0-9.906 2.995-12.22 7.384z"/><path fill="#34A853" d="M277.443 131.233c3.567 0 6.81-1.365 9.261-3.585l-4.275-3.618a8.231 8.231 0 01-4.986 1.678c-3.593 0-6.642-2.29-7.791-5.487l-4.505 3.47c2.285 4.472 6.928 7.542 12.296 7.542z"/><path fill="#4285F4" d="M290.986 114.715l-13.543-.057v5.525h7.807a8.325 8.325 0 01-2.824 3.847h.003l4.275 3.618c-.302.272 4.552-3.321 4.552-10.227 0-.926-.095-1.83-.27-2.706z"/></g><path fill="#BBD9FD" d="M275.006 79.233l.454.006c8.614.237 15.553 7.176 15.79 15.79l.006.454-.007.455c-.236 8.612-7.175 15.552-15.789 15.789l-.454.006-.455-.006a16.186 16.186 0 01-5.56-1.143l-18.07 18.67a6.5 6.5 0 01-4.67 1.98h-3.745a3.25 3.25 0 01-3.25-3.25v-6.164c0-.736.292-1.442.812-1.962l.076-.076a3.25 3.25 0 011.764-.907l1.443-.241a2.877 2.877 0 002.405-2.838v-.813c0-.897.727-1.625 1.625-1.625h.812a2.437 2.437 0 002.438-2.437v-.813c0-.897.727-1.625 1.625-1.625h1.218c1.122 0 2.032-.91 2.032-2.031v-.685c0-.862.342-1.689.951-2.298l3.059-3.059a16.24 16.24 0 01-.76-4.927c0-8.975 7.275-16.25 16.25-16.25zm.23 6.5a9.57 9.57 0 00-2.257.27c-2.381.58-3.258 3.473-1.696 5.283l.17.183 7.566 7.566c1.731 1.732 4.665.992 5.399-1.284l.068-.241a9.51 9.51 0 00-2.21-8.665l-.309-.323a9.48 9.48 0 00-6.274-2.778l-.457-.01z"/><path fill="#3281EE" d="M264.357 107.758a16.29 16.29 0 002.878 2l-21.48 21.475h-4.5c-.117 0-.232-.01-.344-.03l23.446-23.445z"/></g></g></svg>