<svg xmlns="http://www.w3.org/2000/svg" width="162" height="128" viewBox="0 0 162 128">
    <g fill="none" fill-rule="evenodd">
        <path fill="#FFF" d="M0 0h162v128H0z"/>
        <path fill="#BBD9FD" d="M48.429 125.273c2.862 1.018 10.204 1.899 16.12 2.25 16.159.964 38.736.44 48.307-1.33 9.642-1.785 10.07-4.485-14.44-5.821-20.872-1.14-45.235.484-50.445 2.9-1.398.65-1.321 1.37.458 2.001M89.086 18.262l-34.75 7.19c-5.046 1.057-8.288 5.965-7.242 10.99l14.47 69.256c1.045 5.025 5.985 8.242 11.036 7.212l34.745-7.212c5.062-1.03 8.293-5.965 7.248-10.99l-14.47-69.245c-1.045-5.025-5.99-8.248-11.037-7.201"/>
        <path fill="#297EF1" d="M105.109 83.562l-39.313 8.153-11.18-53.496 39.323-8.141 11.17 53.484zm-14.003 16.2a3.515 3.515 0 0 1-4.85.998 3.457 3.457 0 0 1-1.507-2.208 3.468 3.468 0 0 1 .51-2.616c1.093-1.558 3.204-1.992 4.844-1.009a3.475 3.475 0 0 1 1.013 4.824l-.01.01zm-2.022-81.498l-34.744 7.19c-5.052 1.052-8.294 5.966-7.249 10.99l14.47 69.25c1.046 5.03 5.99 8.248 11.037 7.218l34.75-7.217a9.282 9.282 0 0 0 7.243-10.99l-14.465-69.24c-1.05-5.025-5.99-8.253-11.042-7.201z"/>
        <path fill="#FFF" fill-rule="nonzero" d="M128 0c-18.778 0-34 15.222-34 34l.003.46a33.995 33.995 0 0 0 17.698 29.386l.241.129.094-.163c-.507.853-.824 1.741-.824 2.623 0 1.898.906 3.494 2.735 4.132l.306.102c3.468 1.092 6.602.057 10.395-2.599l.29-.207.748.06c.768.051 1.54.077 2.314.077 18.778 0 34-15.222 34-34S146.778 0 128 0z"/>
        <path fill="#BBD9FD" fill-rule="nonzero" d="M128 0c-18.778 0-34 15.222-34 34l.003.46a33.995 33.995 0 0 0 17.698 29.386l.241.129.094-.163c-.507.853-.824 1.741-.824 2.623 0 1.898.906 3.494 2.735 4.132l.306.102c3.468 1.092 6.602.057 10.395-2.599l.29-.207.748.06c.768.051 1.54.077 2.314.077 18.778 0 34-15.222 34-34S146.778 0 128 0zm0 4c16.569 0 30 13.431 30 30 0 16.569-13.431 30-30 30-1.141 0-2.274-.064-3.396-.19l-.772-.087-1.19.867c-2.987 2.143-5.098 2.895-7.164 2.27l-.213-.07c-.049-.017-.053-.023-.053-.355 0-.039.09-.29.241-.545l.082-.13a7.154 7.154 0 0 0 .964-2.237l.392-1.598-1.494-.692A30.001 30.001 0 0 1 98 34c0-16.569 13.431-30 30-30z"/>
        <g fill="#95999D">
            <path d="M117.607 26.612A12.692 12.692 0 0 0 115.25 34c0 7.042 5.708 12.75 12.75 12.75 2.754 0 5.303-.873 7.388-2.357l-17.78-17.78zm3.005-3.005l17.78 17.78A12.692 12.692 0 0 0 140.75 34c0-7.042-5.708-12.75-12.75-12.75-2.754 0-5.303.873-7.388 2.357zM128 51c-9.389 0-17-7.611-17-17s7.611-17 17-17 17 7.611 17 17-7.611 17-17 17z"/>
        </g>
    </g>
</svg>
