<svg xmlns="http://www.w3.org/2000/svg" width="204" height="137" viewBox="0 0 204 137">
    <g fill="none" fill-rule="evenodd">
        <path d="M0 0h204v137H0z"/>
        <path fill="#BBD9FD" d="M67.429 134.273c2.862 1.018 10.204 1.899 16.12 2.25 16.159.964 38.736.44 48.307-1.33 9.642-1.785 10.07-4.485-14.44-5.821-20.872-1.14-45.235.484-50.445 2.9-1.398.65-1.321 1.37.458 2.001"/>
        <g transform="translate(60 39)">
            <rect width="84" height="84" fill="#297EF1" rx="41.5"/>
            <path fill="#FFF" d="M56.113 63.003H27.887C19.125 63.003 12 55.859 12 47.078c0-4.188 1.608-8.143 4.531-11.136a15.78 15.78 0 0 1 9.465-4.675 15.836 15.836 0 0 1 4.664-9.486 15.77 15.77 0 0 1 11.11-4.541c4.177 0 8.124 1.61 11.11 4.54a15.847 15.847 0 0 1 4.66 9.438C65.634 31.945 72 38.781 72 47.08c0 8.78-7.13 15.924-15.889 15.924h.002z"/>
            <path fill="#297EF1" stroke="#297EF1" d="M51.689 46.872c-1.168-.738-1.225-2.093-1.228-2.153a.677.677 0 0 0-.7-.653.677.677 0 0 0-.675.678c.003.048.023.685.336 1.435-4.156 3.814-10.687 3.819-14.851.023a4.28 4.28 0 0 0 .342-1.457.677.677 0 0 0-.67-.677.684.684 0 0 0-.704.65c0 .054-.056 1.415-1.227 2.153a.655.655 0 0 0-.2.924.702.702 0 0 0 .95.194c.302-.19.554-.407.765-.637 2.313 2.018 5.235 3.027 8.158 3.027 2.93 0 5.86-1.013 8.177-3.04.212.232.467.454.776.65a.698.698 0 0 0 .95-.196.656.656 0 0 0-.2-.923v.002z"/>
        </g>
        <g transform="translate(110 90)">
            <rect width="64" height="32" fill="#FFF" rx="4"/>
            <path fill="#BBD9FD" fill-rule="nonzero" d="M60 0a4 4 0 0 1 4 4v24a4 4 0 0 1-4 4H4a4 4 0 0 1-4-4V4a4 4 0 0 1 4-4h56zm0 4H4v24h56V4z"/>
            <path fill="#FF962F" d="M16 10c1.068 0 1.936.867 1.936 1.936v1.61l1.53-.498a1.936 1.936 0 0 1 1.197 3.682l-1.531.497.946 1.3a1.937 1.937 0 0 1-3.133 2.277l-.945-1.3-.946 1.3a1.93 1.93 0 0 1-1.568.798 1.938 1.938 0 0 1-1.564-3.074l.946-1.3-1.53-.498a1.937 1.937 0 0 1-1.243-2.439 1.937 1.937 0 0 1 2.438-1.243l1.531.498v-1.61C14.064 10.867 14.93 10 16 10zm16 0c1.068 0 1.936.867 1.936 1.936v1.61l1.53-.498a1.936 1.936 0 0 1 1.197 3.682l-1.531.497.946 1.3a1.937 1.937 0 0 1-3.133 2.277l-.945-1.3-.946 1.3a1.93 1.93 0 0 1-1.568.798 1.938 1.938 0 0 1-1.564-3.074l.946-1.3-1.53-.498a1.937 1.937 0 0 1-1.243-2.439 1.937 1.937 0 0 1 2.438-1.243l1.531.498v-1.61C30.064 10.867 30.93 10 32 10zm16 0c1.068 0 1.936.867 1.936 1.936v1.61l1.53-.498a1.936 1.936 0 0 1 1.197 3.682l-1.531.497.946 1.3a1.937 1.937 0 0 1-3.133 2.277l-.945-1.3-.946 1.3a1.93 1.93 0 0 1-1.568.798 1.938 1.938 0 0 1-1.564-3.074l.946-1.3-1.53-.498a1.937 1.937 0 0 1-1.243-2.439 1.937 1.937 0 0 1 2.438-1.243l1.531.498v-1.61C46.064 10.867 46.93 10 48 10z"/>
        </g>
        <path fill="#FFF" fill-rule="nonzero" d="M170 0c-18.778 0-34 15.222-34 34l.003.46a33.995 33.995 0 0 0 17.698 29.386l.239.128-.044.078c-.416.752-.684 1.575-.684 2.383 0 1.898.906 3.494 2.735 4.132l.296.098c3.435 1.09 6.456.129 10.23-2.475l.465-.327.748.06c.768.051 1.54.077 2.314.077 18.778 0 34-15.222 34-34S188.778 0 170 0z"/>
        <path fill="#BBD9FD" fill-rule="nonzero" d="M170 0c-18.778 0-34 15.222-34 34l.003.46a33.995 33.995 0 0 0 17.698 29.386l.239.128-.044.078c-.416.752-.684 1.575-.684 2.383 0 1.898.906 3.494 2.735 4.132l.296.098c3.435 1.09 6.456.129 10.23-2.475l.465-.327.748.06c.768.051 1.54.077 2.314.077 18.778 0 34-15.222 34-34S188.778 0 170 0zm0 4c16.569 0 30 13.431 30 30 0 16.569-13.431 30-30 30-1.141 0-2.274-.064-3.396-.19l-.774-.087-.714.521c-3.297 2.432-5.473 3.275-7.641 2.615l-.21-.069c-.049-.017-.053-.023-.053-.355 0-.048.093-.292.236-.535l.063-.103c.471-.721.789-1.462.988-2.274l.392-1.598-1.494-.692A30.001 30.001 0 0 1 140 34c0-16.569 13.431-30 30-30z"/>
        <path fill="#FF962F" d="M170.105 41.143c1.494 0 2.729-1.073 3.058-2.53a4.13 4.13 0 0 1 .09-.34c.309-.973.933-1.824 1.874-2.555l1.727-1.338c1.752-1.362 2.935-2.48 3.551-3.356 1.055-1.444 1.581-3.22 1.581-5.327 0-3.439-1.212-6.034-3.636-7.784-2.425-1.752-5.47-2.627-9.134-2.627-2.79 0-5.141.615-7.055 1.848-2.07 1.316-3.477 3.259-4.225 5.828-.581 1.997.913 4 2.992 4h.815c1.317 0 2.531-.815 2.93-2.071a7.878 7.878 0 0 1 .857-1.821c.787-1.25 2.12-1.874 4.002-1.874 1.913 0 3.23.506 3.953 1.52a5.682 5.682 0 0 1 1.083 3.37c0 1.07-.326 2.051-.974 2.943a6.228 6.228 0 0 1-1.41 1.435l-1.776 1.387c-1.752 1.362-2.839 2.566-3.26 3.612-.206.51-.372 1.222-.501 2.136a3.118 3.118 0 0 0 3.086 3.544h.372zm3.344 6.848a3.516 3.516 0 0 0-3.515-3.515h-.22a3.515 3.515 0 1 0 0 7.03h.22a3.516 3.516 0 0 0 3.515-3.515z"/>
    </g>
</svg>
