<svg width="32" height="32" viewBox="0 0 32 32" fill="none" xmlns="http://www.w3.org/2000/svg">
<g id="icons/software/firefox">
<g id="firefox">
<path id="path980" fill-rule="evenodd" clip-rule="evenodd" d="M27.0009 6.72395C28.0597 7.26914 29.4069 8.99556 30.0745 10.5995C31.0467 13.0393 31.3943 15.6832 31.0859 18.2914C31.078 18.3572 31.0705 18.4231 31.063 18.4889C31.0481 18.6206 31.0332 18.7523 31.0148 18.884C29.7112 26.7692 22.5625 32.3257 14.5995 31.6431C6.63644 30.9606 0.537616 24.2686 0.595006 16.2765V16.1975C0.625973 15.4946 0.707833 14.7948 0.839944 14.1037V14.0681C0.855747 13.922 0.962414 13.2464 0.990068 13.1121L1.04538 13.0173C1.41771 11.3498 2.11585 9.77222 3.0997 8.37531C3.52835 7.76413 4.00668 7.18934 4.52982 6.65679C4.99146 6.18697 5.49238 5.75743 6.0271 5.37284C6.18842 5.26555 6.36055 5.17551 6.54069 5.1042C6.50513 5.63358 6.46167 8.16988 7.07007 8.9363C8.09022 7.74394 9.3449 6.77436 10.756 6.0879C10.4355 7.31775 10.4506 8.611 10.7995 9.83309C10.937 9.92522 11.0689 10.0255 11.1945 10.1333C12.4035 9.17841 13.8728 8.61107 15.4098 8.50568C15.5441 6.4237 16.836 2.25185 20.6799 0H20.7115C20.7302 0.0038113 20.7435 0.0204341 20.7432 0.0395062C20.7932 0.249609 20.8661 0.453616 20.9604 0.647901C21.0078 0.742716 21.0632 0.849383 21.1303 0.963951C21.1794 1.04251 21.2285 1.12379 21.2779 1.20553C21.3477 1.32109 21.4181 1.43757 21.4898 1.54864C22.4573 3.0687 23.506 4.25876 24.5268 5.41717C26.0529 7.14903 27.5167 8.81015 28.5535 11.3975V11.3699C28.2785 9.75049 27.7547 8.18335 27.0009 6.72395ZM12.4469 22.5817C12.4559 22.5862 12.4648 22.5908 12.4737 22.5954L12.4469 22.5817ZM12.4737 22.5954C12.4913 22.6045 12.5087 22.6138 12.526 22.623C12.5692 22.6459 12.6119 22.6687 12.6562 22.6884L12.4737 22.5954Z" fill="url(#paint0_linear)"/>
<path id="path982" d="M30.0745 10.5995C29.4069 8.99556 28.0597 7.26914 27.0009 6.72395C27.7547 8.18335 28.2785 9.75049 28.5535 11.3699V11.4015C29.7325 14.7762 29.5627 18.4759 28.0795 21.7284C26.3214 25.4933 22.0745 29.3531 15.4375 29.1635C8.25525 28.962 1.92636 23.6326 0.74513 16.6479C0.527846 15.5457 0.74513 14.9886 0.851796 14.0919C0.701599 14.7844 0.615638 15.4892 0.595006 16.1975V16.2765C0.537616 24.2686 6.63644 30.9606 14.5995 31.6432C22.5625 32.3257 29.7112 26.7692 31.0148 18.884C31.0424 18.6864 31.0622 18.4889 31.0859 18.2914C31.3943 15.6832 31.0467 13.0393 30.0745 10.5995Z" fill="url(#paint1_radial)"/>
<path id="path984" d="M30.0745 10.5995C29.4069 8.99556 28.0597 7.26914 27.0009 6.72395C27.7547 8.18335 28.2785 9.75049 28.5535 11.3699V11.4015C29.7325 14.7762 29.5627 18.4759 28.0795 21.7284C26.3214 25.4933 22.0745 29.3531 15.4375 29.1635C8.25525 28.962 1.92636 23.6326 0.74513 16.6479C0.527846 15.5457 0.74513 14.9886 0.851796 14.0919C0.701599 14.7844 0.615638 15.4892 0.595006 16.1975V16.2765C0.537616 24.2686 6.63644 30.9606 14.5995 31.6432C22.5625 32.3257 29.7112 26.7692 31.0148 18.884C31.0424 18.6864 31.0622 18.4889 31.0859 18.2914C31.3943 15.6832 31.0467 13.0393 30.0745 10.5995Z" fill="url(#paint2_radial)"/>
<path id="path986" d="M22.6315 12.397L22.7264 12.4681C22.3431 11.7846 21.8642 11.1594 21.3041 10.6114C16.5476 5.85481 20.0597 0.292346 20.6483 0C16.7925 2.25185 15.5046 6.4237 15.3861 8.50568C15.5639 8.50568 15.7417 8.48198 15.9234 8.48198C18.7007 8.48596 21.2621 9.98083 22.6315 12.397Z" fill="url(#paint3_radial)"/>
<path id="path988" d="M15.9352 13.3491C15.9076 13.7442 14.5604 15.044 14.0903 15.044C9.7446 15.044 9.02954 17.6751 9.02954 17.6751C9.22312 19.8953 10.7678 21.7205 12.6365 22.6884L12.8972 22.8109C13.0473 22.878 13.1974 22.9373 13.3476 22.9965C13.9829 23.225 14.6486 23.3581 15.3229 23.3916C22.9555 23.7511 24.433 14.2657 18.9258 11.5121C20.2244 11.3441 21.5391 11.6636 22.6157 12.4089C21.2448 9.99022 18.6798 8.49497 15.8997 8.49383C15.7179 8.49383 15.5402 8.49383 15.3624 8.51753C13.8254 8.62292 12.3561 9.19026 11.1471 10.1452C11.3802 10.3427 11.6448 10.6035 12.2019 11.1526C13.2646 12.164 15.9273 13.2227 15.9352 13.3491Z" fill="url(#paint4_radial)"/>
<path id="path990" d="M15.9352 13.3491C15.9076 13.7442 14.5604 15.044 14.0903 15.044C9.7446 15.044 9.02954 17.6751 9.02954 17.6751C9.22312 19.8953 10.7678 21.7205 12.6365 22.6884L12.8972 22.8109C13.0473 22.878 13.1974 22.9373 13.3476 22.9965C13.9829 23.225 14.6486 23.3581 15.3229 23.3916C22.9555 23.7511 24.433 14.2657 18.9258 11.5121C20.2244 11.3441 21.5391 11.6636 22.6157 12.4089C21.2448 9.99022 18.6798 8.49497 15.8997 8.49383C15.7179 8.49383 15.5402 8.49383 15.3624 8.51753C13.8254 8.62292 12.3561 9.19026 11.1471 10.1452C11.3802 10.3427 11.6448 10.6035 12.2019 11.1526C13.2646 12.164 15.9273 13.2227 15.9352 13.3491Z" fill="url(#paint5_radial)"/>
<path id="path992" d="M10.4716 9.6237C10.594 9.70271 10.6967 9.76987 10.7837 9.83308C10.4349 8.61082 10.4213 7.31725 10.7442 6.0879C9.33179 6.77231 8.07672 7.7422 7.05823 8.93629C7.12144 8.93629 9.34168 8.89679 10.4716 9.6237Z" fill="url(#paint6_radial)"/>
<path id="path994" d="M0.73322 16.6558C1.91841 23.6365 8.23939 28.9699 15.4295 29.1714C22.0784 29.361 26.3253 25.5012 28.0715 21.7363C29.5581 18.482 29.7294 14.7791 28.5495 11.4015V11.4291C29.0908 14.9847 27.2853 18.4099 24.4685 20.7328V20.7526C18.9772 25.2286 13.7189 23.4548 12.6522 22.7279L12.4468 22.5857C9.22705 21.0568 7.90359 18.1373 8.18804 15.6326C6.62898 15.6634 5.19944 14.7687 4.54557 13.3531C6.25408 12.305 8.38442 12.2197 10.1712 13.1279C11.9857 13.9508 14.0501 14.0317 15.9233 13.3531C15.9233 13.2267 13.2527 12.1679 12.2137 11.1447C11.6567 10.5956 11.3959 10.3348 11.1589 10.1373C11.0333 10.0294 10.9014 9.92917 10.7638 9.83704L10.4478 9.62765C9.33371 8.90074 7.10952 8.94025 7.03841 8.94025C6.43396 8.17383 6.47347 5.63753 6.50902 5.10815C6.33015 5.17947 6.15932 5.26952 5.99939 5.37679C5.46306 5.75933 4.96198 6.18902 4.50211 6.66074C3.97536 7.19077 3.49431 7.76433 3.06408 8.37531C2.08024 9.77221 1.3821 11.3497 1.00976 13.0173C1.00976 13.037 0.464578 15.4074 0.73322 16.6558Z" fill="url(#paint7_radial)"/>
<path id="path996" d="M21.3042 10.6114C21.8636 11.16 22.3424 11.7852 22.7264 12.4681C22.8133 12.5353 22.8923 12.5985 22.9595 12.6578C26.4281 15.8578 24.6108 20.3812 24.4765 20.7052C27.2933 18.3783 29.0988 14.9452 28.5575 11.3975C26.8232 7.07951 23.9037 5.34123 21.4899 1.54864C21.3674 1.35901 21.2489 1.15358 21.1304 0.963951C21.0632 0.849383 21.0079 0.742716 20.9605 0.647901C20.8661 0.453616 20.7933 0.249609 20.7432 0.0395062C20.7436 0.0204341 20.7303 0.0038113 20.7116 0H20.68C20.0597 0.292346 16.5476 5.85481 21.3042 10.6114Z" fill="url(#paint8_radial)"/>
<path id="path998" d="M22.9556 12.642C22.8824 12.5749 22.806 12.5116 22.7264 12.4523L22.6316 12.3812C21.5533 11.6364 20.2376 11.3169 18.9378 11.4844C24.4449 14.2499 22.9674 23.7314 15.3348 23.364C14.6605 23.3304 13.9948 23.1973 13.3595 22.9689C13.2094 22.9096 13.0593 22.8504 12.9091 22.7832L12.6523 22.6607C13.7151 23.3837 18.9733 25.1615 24.4686 20.6854V20.6657C24.6109 20.3812 26.4281 15.8538 22.9556 12.642Z" fill="url(#paint9_radial)"/>
<path id="path1000" d="M9.0296 17.6751C9.0296 17.6751 9.73676 15.0439 14.0903 15.0439C14.5644 15.0439 15.9076 13.7284 15.9353 13.3491C14.062 14.0277 11.9977 13.9469 10.1832 13.1239C8.39286 12.2129 6.25761 12.2982 4.54565 13.3491C5.20253 14.7566 6.62319 15.6486 8.17627 15.6286C7.89973 18.1333 9.22319 21.0528 12.4469 22.5817L12.6563 22.6884C10.7679 21.7284 9.22319 19.8953 9.0296 17.6751Z" fill="url(#paint10_radial)"/>
<path id="path1002" d="M30.0745 10.5995C29.4069 8.99556 28.0597 7.26914 27.0009 6.72395C27.7547 8.18335 28.2785 9.75049 28.5535 11.3699V11.3975C26.8232 7.07951 23.9036 5.34123 21.4898 1.54864C21.3674 1.35901 21.2488 1.15358 21.1303 0.963951C21.0632 0.849383 21.0078 0.742716 20.9604 0.647901C20.8661 0.453616 20.7932 0.249609 20.7432 0.0395062C20.7435 0.0204341 20.7302 0.0038113 20.7115 0H20.6799V0C16.836 2.25185 15.5441 6.4237 15.4098 8.50568C15.5876 8.50568 15.7654 8.48198 15.9471 8.48198C18.7273 8.48312 21.2923 9.97837 22.6632 12.397C21.5866 11.6517 20.2718 11.3322 18.9733 11.5002C24.4804 14.2657 23.0029 23.7472 15.3703 23.3798C14.696 23.3462 14.0303 23.2131 13.395 22.9847C13.2449 22.9254 13.0948 22.8662 12.9446 22.799L12.6839 22.6765L12.4469 22.5817C12.518 22.6173 12.5851 22.6568 12.6562 22.6884C10.7876 21.7205 9.24291 19.8953 9.04933 17.6751C9.04933 17.6751 9.75649 15.044 14.1101 15.044C14.5841 15.044 15.9274 13.7284 15.955 13.3491C15.955 13.2227 13.2844 12.1639 12.2454 11.1407C11.6883 10.5916 11.4236 10.3309 11.1906 10.1333C11.065 10.0255 10.933 9.92522 10.7955 9.83309C10.4466 8.611 10.4316 7.31775 10.752 6.0879C9.34095 6.77436 8.08627 7.74394 7.06612 8.9363C6.45772 8.16988 6.50118 5.63358 6.53673 5.1042C6.3566 5.17551 6.18447 5.26555 6.02315 5.37284C5.48843 5.75743 4.98751 6.18697 4.52587 6.65679C4.00273 7.18934 3.5244 7.76413 3.09575 8.37531C2.1119 9.77222 1.41376 11.3498 1.04143 13.0173L0.990068 13.1121C0.962414 13.2464 0.832043 13.9338 0.81229 14.08C0.697195 14.7808 0.624635 15.4879 0.595006 16.1975V16.2765C0.537616 24.2686 6.63644 30.9606 14.5995 31.6431C22.5625 32.3257 29.7112 26.7692 31.0148 18.884C31.0424 18.6864 31.0622 18.4889 31.0859 18.2914C31.3943 15.6832 31.0467 13.0393 30.0745 10.5995Z" fill="url(#paint11_linear)"/>
</g>
</g>
<defs>
<linearGradient id="paint0_linear" x1="16.2084" y1="-8.27092" x2="-10.0409" y2="15.3262" gradientUnits="userSpaceOnUse">
<stop stop-color="#FFF44F"/>
<stop offset="0.05" stop-color="#FFF44F"/>
<stop offset="0.11" stop-color="#FFE847"/>
<stop offset="0.23" stop-color="#FFC830"/>
<stop offset="0.37" stop-color="#FF980E"/>
<stop offset="0.4" stop-color="#FF8B16"/>
<stop offset="0.46" stop-color="#FF672A"/>
<stop offset="0.53" stop-color="#FF3647"/>
<stop offset="0.7" stop-color="#E31587"/>
<stop offset="1" stop-color="#E31587"/>
</linearGradient>
<radialGradient id="paint1_radial" cx="0" cy="0" r="1" gradientUnits="userSpaceOnUse" gradientTransform="translate(26.8706 3.50815) scale(31.921 26.0537)">
<stop stop-color="#FFBD4F"/>
<stop offset="0.13" stop-color="#FFBD4F"/>
<stop offset="0.19" stop-color="#FFAC31"/>
<stop offset="0.25" stop-color="#FF9D17"/>
<stop offset="0.28" stop-color="#FF980E"/>
<stop offset="0.4" stop-color="#FF563B"/>
<stop offset="0.47" stop-color="#FF3750"/>
<stop offset="0.71" stop-color="#F5156C"/>
<stop offset="0.78" stop-color="#EB0878"/>
<stop offset="0.86" stop-color="#E50080"/>
<stop offset="1" stop-color="#E50080"/>
</radialGradient>
<radialGradient id="paint2_radial" cx="0" cy="0" r="1" gradientUnits="userSpaceOnUse" gradientTransform="translate(15.2083 16.557) scale(31.921 26.0537)">
<stop stop-color="#960E18"/>
<stop offset="0.3" stop-color="#960E18"/>
<stop offset="0.35" stop-color="#B11927" stop-opacity="0.74"/>
<stop offset="0.43" stop-color="#DB293D" stop-opacity="0.34"/>
<stop offset="0.5" stop-color="#F5334B" stop-opacity="0.09"/>
<stop offset="0.53" stop-color="#FF3750" stop-opacity="0.01"/>
<stop offset="1" stop-color="#FF3750" stop-opacity="0.01"/>
</radialGradient>
<radialGradient id="paint3_radial" cx="0" cy="0" r="1" gradientUnits="userSpaceOnUse" gradientTransform="translate(19.0562 -3.73728) scale(23.123 39.2767)">
<stop stop-color="#FFF44F"/>
<stop offset="0.13" stop-color="#FFF44F"/>
<stop offset="0.25" stop-color="#FFDC3E"/>
<stop offset="0.51" stop-color="#FF9D12"/>
<stop offset="0.53" stop-color="#FF980E"/>
<stop offset="1" stop-color="#FF980E"/>
</radialGradient>
<radialGradient id="paint4_radial" cx="0" cy="0" r="1" gradientUnits="userSpaceOnUse" gradientTransform="translate(11.6765 24.8968) scale(15.198 16.6764)">
<stop stop-color="#3A8EE6"/>
<stop offset="0.35" stop-color="#3A8EE6"/>
<stop offset="0.47" stop-color="#5C79F0"/>
<stop offset="0.67" stop-color="#9059FF"/>
<stop offset="1" stop-color="#C139E6"/>
</radialGradient>
<radialGradient id="paint5_radial" cx="0" cy="0" r="1" gradientUnits="userSpaceOnUse" gradientTransform="translate(6.33842 -8.61673) rotate(-13.3392) scale(8.03424 8.73623)">
<stop stop-color="#9059FF" stop-opacity="0.01"/>
<stop offset="0.21" stop-color="#9059FF" stop-opacity="0.01"/>
<stop offset="0.28" stop-color="#8C4FF3" stop-opacity="0.06"/>
<stop offset="0.75" stop-color="#7716A8" stop-opacity="0.45"/>
<stop offset="0.97" stop-color="#6E008B" stop-opacity="0.6"/>
<stop offset="1" stop-color="#6E008B" stop-opacity="0.6"/>
</radialGradient>
<radialGradient id="paint6_radial" cx="0" cy="0" r="1" gradientUnits="userSpaceOnUse" gradientTransform="translate(14.8054 2.20049) scale(10.9353 10.9933)">
<stop stop-color="#FFE226"/>
<stop offset="0.12" stop-color="#FFDB27"/>
<stop offset="0.29" stop-color="#FFC82A"/>
<stop offset="0.5" stop-color="#FFA930"/>
<stop offset="0.73" stop-color="#FF7E37"/>
<stop offset="0.79" stop-color="#FF7139"/>
<stop offset="1" stop-color="#FF7139"/>
</radialGradient>
<radialGradient id="paint7_radial" cx="0" cy="0" r="1" gradientUnits="userSpaceOnUse" gradientTransform="translate(23.3979 -4.73284) scale(46.6489 39.169)">
<stop stop-color="#FFF44F"/>
<stop offset="0.11" stop-color="#FFF44F"/>
<stop offset="0.46" stop-color="#FF980E"/>
<stop offset="0.62" stop-color="#FF5634"/>
<stop offset="0.72" stop-color="#FF3647"/>
<stop offset="0.9" stop-color="#E31587"/>
<stop offset="1" stop-color="#E31587"/>
</radialGradient>
<radialGradient id="paint8_radial" cx="0" cy="0" r="1" gradientUnits="userSpaceOnUse" gradientTransform="translate(24.2881 -21.3513) rotate(84.2894) scale(34.3433 16.8177)">
<stop stop-color="#FFF44F"/>
<stop offset="0.06" stop-color="#FFE847"/>
<stop offset="0.17" stop-color="#FFC830"/>
<stop offset="0.3" stop-color="#FF980E"/>
<stop offset="0.36" stop-color="#FF8B16"/>
<stop offset="0.46" stop-color="#FF672A"/>
<stop offset="0.57" stop-color="#FF3647"/>
<stop offset="0.74" stop-color="#E31587"/>
<stop offset="1" stop-color="#E31587"/>
</radialGradient>
<radialGradient id="paint9_radial" cx="0" cy="0" r="1" gradientUnits="userSpaceOnUse" gradientTransform="translate(14.5486 6.24988) scale(29.124 28.5725)">
<stop stop-color="#FFF44F"/>
<stop offset="0.14" stop-color="#FFF44F"/>
<stop offset="0.48" stop-color="#FF980E"/>
<stop offset="0.59" stop-color="#FF5634"/>
<stop offset="0.66" stop-color="#FF3647"/>
<stop offset="0.9" stop-color="#E31587"/>
<stop offset="1" stop-color="#E31587"/>
</radialGradient>
<radialGradient id="paint10_radial" cx="0" cy="0" r="1" gradientUnits="userSpaceOnUse" gradientTransform="translate(22.2365 7.95654) scale(31.8775 28.5262)">
<stop stop-color="#FFF44F"/>
<stop offset="0.09" stop-color="#FFF44F"/>
<stop offset="0.23" stop-color="#FFE141"/>
<stop offset="0.51" stop-color="#FFAF1E"/>
<stop offset="0.63" stop-color="#FF980E"/>
<stop offset="1" stop-color="#FF980E"/>
</radialGradient>
<linearGradient id="paint11_linear" x1="17.3019" y1="-6.43891" x2="-5.06292" y2="14.3977" gradientUnits="userSpaceOnUse">
<stop stop-color="#FFF44F" stop-opacity="0.8"/>
<stop offset="0.17" stop-color="#FFF44F" stop-opacity="0.8"/>
<stop offset="0.27" stop-color="#FFF44F" stop-opacity="0.63"/>
<stop offset="0.49" stop-color="#FFF44F" stop-opacity="0.22"/>
<stop offset="0.6" stop-color="#FFF44F" stop-opacity="0.01"/>
<stop offset="1" stop-color="#FFF44F" stop-opacity="0.01"/>
</linearGradient>
</defs>
</svg>
