<svg width="32" height="32" viewBox="0 0 32 32" fill="none" xmlns="http://www.w3.org/2000/svg">
<path fill-rule="evenodd" clip-rule="evenodd" d="M32 2.16003H0V27.6964C0 28.8562 0.940202 29.7964 2.1 29.7964H29.9C31.0598 29.7964 32 28.8562 32 27.6964V2.16003ZM12.3637 5.06848H19.6365C20.4401 5.06848 21.091 5.71939 21.091 6.52303C21.091 7.32666 20.4401 7.97757 19.6365 7.97757H12.3637C11.5601 7.97757 10.9092 7.32666 10.9092 6.52303C10.9092 5.71939 11.5601 5.06848 12.3637 5.06848Z" fill="#EEEEEE"/>
<g clip-path="url(#clip0)">
<g clip-path="url(#clip1)">
<path d="M4.34375 14.51V30.055H10.0121L14.9988 21.4183H27.6654V14.51H4.34375ZM4.34375 14.51V30.055H10.0121L14.9988 21.4183H27.6654V14.51H4.34375Z" fill="#DB4437"/>
<path d="M2.33203 39.8431H14.3887L19.9854 34.2464V30.0564L10.012 30.0547L2.33203 16.8831V39.8431ZM2.33203 39.8431H14.3887L19.9854 34.2464V30.0564L10.012 30.0547L2.33203 16.8831V39.8431Z" fill="#0F9D58"/>
<path d="M14.999 21.4182L19.9856 30.0549L14.3906 39.8432H27.6656V21.4182H14.999ZM14.999 21.4182L19.9856 30.0549L14.3906 39.8432H27.6656V21.4182H14.999Z" fill="#FFCD40"/>
<path d="M15.0005 32.9349C18.1808 32.9349 20.7589 30.3568 20.7589 27.1765C20.7589 23.9963 18.1808 21.4182 15.0005 21.4182C11.8203 21.4182 9.24219 23.9963 9.24219 27.1765C9.24219 30.3568 11.8203 32.9349 15.0005 32.9349Z" fill="#F1F1F1"/>
<path d="M15.0012 31.7839C17.5454 31.7839 19.6079 29.7214 19.6079 27.1772C19.6079 24.633 17.5454 22.5706 15.0012 22.5706C12.457 22.5706 10.3945 24.633 10.3945 27.1772C10.3945 29.7214 12.457 31.7839 15.0012 31.7839Z" fill="#4285F4"/>
</g>
</g>
<path fill-rule="evenodd" clip-rule="evenodd" d="M32 2.16003H0V15.9782H32V2.16003ZM12.3637 5.06848H19.6365C20.4401 5.06848 21.091 5.71939 21.091 6.52303C21.091 7.32666 20.4401 7.97757 19.6365 7.97757H12.3637C11.5601 7.97757 10.9092 7.32666 10.9092 6.52303C10.9092 5.71939 11.5601 5.06848 12.3637 5.06848Z" fill="#212121" fill-opacity="0.05"/>
<path d="M0 15.7964H32V15.9782H0V15.7964Z" fill="#212121" fill-opacity="0.02"/>
<path d="M0 15.9775H32V16.1594H0V15.9775Z" fill="white" fill-opacity="0.05"/>
<path d="M19.6364 7.97822H12.3636C11.5909 7.97822 10.96 7.37458 10.9145 6.61458C10.9109 6.64549 10.9091 6.67458 10.9091 6.70549C10.9091 7.50913 11.56 8.16003 12.3636 8.16003H19.6364C20.44 8.16003 21.0909 7.50913 21.0909 6.70549C21.0909 6.67458 21.0891 6.64549 21.0855 6.61458C21.04 7.37458 20.4091 7.97822 19.6364 7.97822ZM0 2.16003V2.34185H32V2.16003H0Z" fill="#212121" fill-opacity="0.02"/>
<path d="M12.3636 5.06915H19.6364C20.4091 5.06915 21.04 5.67278 21.0855 6.43278C21.0873 6.40187 21.0909 6.37278 21.0909 6.34187C21.0909 5.53824 20.44 4.88733 19.6364 4.88733H12.3636C11.56 4.88733 10.9091 5.53824 10.9091 6.34187C10.9091 6.37278 10.9109 6.40187 10.9145 6.43278C10.96 5.67278 11.5909 5.06915 12.3636 5.06915ZM29.8182 29.6146H2.18182C0.981818 29.6146 0 28.6328 0 27.4328V27.6146C0 28.8146 0.981818 29.7964 2.18182 29.7964H29.8182C31.0182 29.7964 32 28.8146 32 27.6146V27.4328C32 28.6328 31.0182 29.6146 29.8182 29.6146Z" fill="#231F20" fill-opacity="0.1"/>
<defs>
<clipPath id="clip0">
<rect width="28.3636" height="15.2727" fill="white" transform="translate(2 14.51)"/>
</clipPath>
<clipPath id="clip1">
<rect x="2.33203" y="14.51" width="25.3336" height="25.3332" rx="12.6666" fill="white"/>
</clipPath>
</defs>
</svg>
