<svg width="36" height="36" viewBox="0 0 36 36" fill="none" xmlns="http://www.w3.org/2000/svg">
<g opacity="0.53" filter="url(#filter0_f)">
<path d="M33.2647 18.2284C33.2647 20.1682 32.8679 22.089 32.097 23.8812C31.326 25.6734 30.1961 27.3018 28.7716 28.6735C27.3472 30.0452 25.6561 31.1332 23.7949 31.8756C21.9337 32.6179 19.939 33 17.9244 33C15.9099 33 13.9152 32.6179 12.054 31.8756C10.1928 31.1332 8.50175 30.0452 7.07728 28.6735C5.6528 27.3018 4.52285 25.6734 3.75193 23.8812C2.98102 22.089 2.58423 20.1682 2.58423 18.2284C2.58423 14.3107 4.20043 10.5535 7.07728 7.78323C9.95413 5.01301 13.856 3.45672 17.9244 3.45672C19.939 3.45672 21.9337 3.8388 23.7949 4.58114C25.6561 5.32349 27.3472 6.41156 28.7716 7.78323C30.1961 9.15491 31.326 10.7833 32.097 12.5755C32.8679 14.3677 33.2647 16.2885 33.2647 18.2284V18.2284Z" fill="black"/>
</g>
<path d="M33.8488 16.9244C33.8488 19.0156 33.4369 21.0864 32.6366 23.0184C31.8364 24.9505 30.6634 26.706 29.1847 28.1847C27.7059 29.6634 25.9505 30.8364 24.0184 31.6367C22.0864 32.4369 20.0156 32.8488 17.9244 32.8488C13.701 32.8488 9.65055 31.1711 6.66415 28.1847C3.67774 25.1983 2 21.1478 2 16.9244C2 12.701 3.67774 8.65056 6.66415 5.66416C9.65055 2.67775 13.701 1 17.9244 1C20.0156 1 22.0864 1.4119 24.0184 2.21218C25.9505 3.01245 27.7059 4.18544 29.1847 5.66416C30.6634 7.14287 31.8364 8.89836 32.6366 10.8304C33.4369 12.7624 33.8488 14.8332 33.8488 16.9244V16.9244Z" fill="url(#paint0_linear)" stroke="#CDCDCD" stroke-width="0.0930123" stroke-linecap="round" stroke-linejoin="round"/>
<path d="M32.601 16.9244C32.601 20.8169 31.0547 24.5499 28.3023 27.3023C25.5499 30.0547 21.8169 31.601 17.9244 31.601C14.0319 31.601 10.2989 30.0547 7.54648 27.3023C4.79408 24.5499 3.2478 20.8169 3.2478 16.9244C3.2478 13.0319 4.79408 9.29889 7.54648 6.5465C10.2989 3.7941 14.0319 2.24783 17.9244 2.24783C21.8169 2.24783 25.5499 3.7941 28.3023 6.5465C31.0547 9.29889 32.601 13.0319 32.601 16.9244Z" fill="url(#paint1_radial)"/>
<path d="M17.9244 3.01321C17.8058 3.01321 17.7104 3.10863 17.7104 3.22718V5.69535C17.7104 5.8139 17.8058 5.90933 17.9244 5.90933C18.0429 5.90933 18.1384 5.8139 18.1384 5.69535V3.22718C18.1384 3.10863 18.0429 3.01321 17.9244 3.01321ZM16.5245 3.10168C16.5103 3.10016 16.4958 3.10016 16.481 3.10186C16.3631 3.11416 16.2781 3.21898 16.2904 3.33689L16.3983 4.36946C16.4106 4.48737 16.5154 4.57239 16.6333 4.56008C16.7512 4.54778 16.8362 4.44295 16.8239 4.32504L16.7161 3.29248C16.7054 3.18931 16.6237 3.11132 16.5245 3.10168H16.5245ZM19.334 3.1027C19.2348 3.11226 19.1531 3.19024 19.1423 3.29339L19.0337 4.32588C19.0213 4.44378 19.1063 4.5487 19.2242 4.5611C19.3421 4.57351 19.4469 4.48857 19.4593 4.37067L19.5679 3.3381C19.5803 3.2202 19.4953 3.11536 19.3774 3.10297C19.3627 3.10144 19.3482 3.10145 19.334 3.10271V3.1027ZM15.0865 3.3102C15.0723 3.31032 15.0578 3.31173 15.0433 3.31478C14.9274 3.33933 14.8537 3.45249 14.8783 3.56847L15.3895 5.98307C15.414 6.09905 15.5272 6.17266 15.6431 6.14811C15.7591 6.12355 15.8327 6.01049 15.8082 5.89451L15.297 3.47982C15.2755 3.37833 15.1862 3.30929 15.0865 3.31007L15.0865 3.3102ZM20.7719 3.31224C20.6722 3.31123 20.5829 3.38033 20.5614 3.48179L20.0484 5.89612C20.0238 6.01208 20.0973 6.12526 20.2133 6.1499C20.3293 6.17455 20.4424 6.10099 20.4671 5.98505L20.98 3.57072C21.0046 3.45476 20.9311 3.34157 20.8151 3.31694C20.8006 3.31389 20.7862 3.31237 20.7719 3.31237L20.7719 3.31224ZM13.7142 3.69715C13.6865 3.69461 13.6579 3.69766 13.6297 3.70702C13.5169 3.74367 13.4556 3.86384 13.4923 3.97659L13.8131 4.964C13.8498 5.07675 13.97 5.13805 14.0828 5.10142C14.1955 5.06477 14.2567 4.9445 14.2201 4.83176L13.8993 3.84435C13.8718 3.75979 13.7973 3.7042 13.7142 3.69713V3.69715ZM22.1365 3.69766C22.0534 3.70473 21.9789 3.76031 21.9514 3.84487L21.6304 4.83219C21.5937 4.94493 21.655 5.0652 21.7677 5.10185C21.8805 5.1385 22.0008 5.07725 22.0374 4.96453L22.3584 3.97711C22.3951 3.86437 22.3338 3.7441 22.2211 3.70745C22.1929 3.6983 22.1642 3.6953 22.1365 3.69764V3.69766ZM12.3571 4.19377C12.3293 4.19428 12.3012 4.20038 12.2741 4.21243C12.1658 4.26057 12.1173 4.38651 12.1655 4.49483L13.1679 6.75022C13.2161 6.85854 13.342 6.90698 13.4503 6.85883C13.5586 6.81069 13.6072 6.68475 13.5591 6.57642L12.5565 4.32103C12.5204 4.23978 12.4405 4.19216 12.3571 4.19377V4.19377ZM23.5089 4.20134C23.4255 4.19982 23.3456 4.24714 23.3094 4.32832L22.3038 6.58233C22.2555 6.69059 22.3038 6.81663 22.4121 6.86492C22.5203 6.91322 22.6464 6.86495 22.6947 6.75669L23.7002 4.50269C23.7485 4.39443 23.7002 4.26839 23.5919 4.22009C23.5649 4.20804 23.5367 4.20195 23.5089 4.20134V4.20134ZM11.0974 4.86027C11.0564 4.85722 11.014 4.86636 10.9755 4.88863C10.8729 4.9479 10.8379 5.07826 10.8972 5.18093L11.4163 6.08006C11.4756 6.18272 11.606 6.21764 11.7086 6.15836C11.8113 6.09909 11.8462 5.96874 11.7869 5.86607L11.2678 4.96695C11.2308 4.90278 11.1659 4.86507 11.0974 4.86028V4.86027ZM24.7513 4.86027C24.6828 4.86485 24.6181 4.90277 24.581 4.96694L24.0618 5.86606C24.0025 5.96873 24.0376 6.09907 24.1402 6.15835C24.2429 6.21762 24.3732 6.1827 24.4325 6.08004L24.9516 5.18091C25.0109 5.07825 24.976 4.94789 24.8733 4.88861C24.8348 4.8664 24.7924 4.85741 24.7513 4.86026V4.86027ZM9.87425 5.62317C9.83307 5.6247 9.79185 5.63792 9.75586 5.664C9.65991 5.73361 9.63869 5.86689 9.70833 5.96285L11.1576 7.96067C11.2272 8.05663 11.3606 8.07784 11.4565 8.00825C11.5525 7.93864 11.5737 7.80536 11.5041 7.7094L10.0547 5.71158C10.0112 5.6516 9.94284 5.62085 9.87425 5.6232V5.62317ZM25.9898 5.63406C25.9212 5.63151 25.8529 5.66227 25.8093 5.72216L24.3573 7.71804C24.2875 7.8139 24.3086 7.94724 24.4044 8.01698C24.5003 8.08672 24.6336 8.06573 24.7034 7.96991L26.1553 5.97403C26.225 5.87816 26.204 5.74482 26.1081 5.67508C26.0722 5.64895 26.031 5.63553 25.9898 5.63406V5.63406ZM8.78091 6.5401C8.72629 6.53705 8.67056 6.5553 8.6265 6.59496C8.53839 6.67427 8.53132 6.80903 8.61065 6.89714L9.30531 7.66882C9.38462 7.75693 9.51936 7.76401 9.60747 7.68468C9.69558 7.60536 9.70268 7.47052 9.62334 7.38241L8.92877 6.61082C8.88912 6.56675 8.83554 6.54295 8.78091 6.54008V6.5401ZM27.0694 6.54163C27.0148 6.54468 26.9612 6.56832 26.9216 6.61237L26.2269 7.38387C26.1476 7.47197 26.1546 7.60681 26.2427 7.68613C26.3308 7.76546 26.4656 7.75834 26.5449 7.67027L27.2396 6.89878C27.319 6.81067 27.3118 6.67583 27.2238 6.59651C27.1797 6.55686 27.1241 6.53879 27.0695 6.54165L27.0694 6.54163ZM7.73301 7.54668C7.67839 7.54973 7.6249 7.57337 7.58524 7.61742C7.50593 7.70553 7.51303 7.84028 7.60111 7.9196L9.43547 9.57091C9.52358 9.65023 9.65833 9.64314 9.73763 9.55506C9.81695 9.46695 9.80995 9.33219 9.72183 9.25288L7.88737 7.60156C7.8433 7.56191 7.78759 7.54383 7.73296 7.5467L7.73301 7.54668ZM28.1224 7.55389C28.0678 7.55084 28.012 7.56905 27.9679 7.60867L26.1324 9.2587C26.0443 9.33794 26.037 9.4727 26.1162 9.56087C26.1955 9.64903 26.3304 9.65619 26.4185 9.57693L28.2541 7.9269C28.3422 7.84765 28.3494 7.7129 28.2701 7.62473C28.2305 7.58066 28.177 7.5568 28.1224 7.55389H28.1224ZM6.86158 8.66719C6.79298 8.66465 6.72459 8.69556 6.68105 8.75548C6.61137 8.85139 6.6325 8.98464 6.72843 9.05432L7.56835 9.66458C7.66425 9.73426 7.79751 9.71323 7.86719 9.6173C7.93688 9.52139 7.9158 9.38804 7.81992 9.31836L6.97998 8.70811C6.94404 8.68198 6.90275 8.66866 6.8616 8.66718L6.86158 8.66719ZM28.993 8.67497C28.9518 8.6765 28.9106 8.68966 28.8746 8.71579L28.0343 9.3255C27.9383 9.39511 27.9171 9.52848 27.9867 9.62444C28.0563 9.72039 28.1896 9.74152 28.2856 9.67192L29.126 9.06221C29.2219 8.9926 29.243 8.85932 29.1734 8.76337C29.1299 8.7034 29.0616 8.67264 28.993 8.67499V8.67497ZM6.04724 9.86242C5.97877 9.86699 5.914 9.90492 5.87695 9.96908C5.81767 10.0717 5.8526 10.2021 5.95526 10.2614L8.09272 11.4955C8.19538 11.5547 8.32574 11.5198 8.38501 11.4171C8.44429 11.3145 8.40936 11.1841 8.3067 11.1249L6.16923 9.89076C6.13075 9.86855 6.08833 9.85955 6.04724 9.8624V9.86242ZM29.8015 9.86242C29.7604 9.85937 29.718 9.86852 29.6795 9.89079L27.5421 11.1249C27.4394 11.1841 27.4045 11.3145 27.4638 11.4172C27.523 11.5198 27.6534 11.5547 27.756 11.4955L29.8936 10.2614C29.9963 10.2021 30.0312 10.0718 29.9719 9.9691C29.9348 9.90493 29.87 9.86723 29.8015 9.86244V9.86242ZM5.43153 11.1364C5.34814 11.1344 5.26818 11.1821 5.23196 11.2633C5.18367 11.3716 5.23193 11.4976 5.3402 11.5459L6.28845 11.9688C6.39672 12.0171 6.52277 11.9689 6.57105 11.8606C6.61935 11.7523 6.57099 11.6263 6.46272 11.578L5.51456 11.155C5.48752 11.1429 5.45932 11.137 5.43153 11.1364V11.1364ZM30.4214 11.1452C30.3936 11.1457 30.3653 11.1518 30.3383 11.1638L29.3898 11.5861C29.2815 11.6343 29.2331 11.7603 29.2813 11.8686C29.3295 11.9769 29.4556 12.0253 29.5639 11.9771L30.5123 11.5548C30.6206 11.5066 30.669 11.3806 30.6208 11.2723C30.5846 11.191 30.5048 11.1435 30.4214 11.1452V11.1452ZM4.88279 12.4679C4.79968 12.4749 4.72518 12.5304 4.69763 12.615C4.66093 12.7277 4.72202 12.848 4.83476 12.8847L7.18149 13.6494C7.2942 13.6861 7.41452 13.6249 7.45125 13.5122C7.48795 13.3995 7.42684 13.2792 7.31411 13.2425L4.96739 12.4778C4.93922 12.4686 4.91049 12.4656 4.88279 12.4679V12.4679ZM30.9691 12.4771C30.9414 12.4745 30.9128 12.4776 30.8846 12.4869L28.5373 13.2499C28.4246 13.2866 28.3633 13.4069 28.4 13.5196C28.4367 13.6323 28.5569 13.6936 28.6697 13.6569L31.0168 12.8939C31.1296 12.8573 31.1909 12.737 31.1543 12.6243C31.1268 12.5397 31.0522 12.4841 30.9691 12.4771V12.4771ZM4.54091 13.8657C4.44122 13.8647 4.35181 13.9338 4.33025 14.0353C4.30559 14.1513 4.37916 14.2644 4.4951 14.2891L5.51068 14.5049C5.62664 14.5296 5.73981 14.456 5.76446 14.3401C5.78911 14.2241 5.71556 14.1109 5.59962 14.0863L4.58413 13.8705C4.56964 13.8674 4.55515 13.8659 4.54091 13.8659V13.8657ZM31.3083 13.8677C31.2941 13.8678 31.2797 13.8697 31.2652 13.8723L30.2496 14.088C30.1337 14.1127 30.0601 14.2257 30.0848 14.3417C30.1094 14.4577 30.2226 14.5313 30.3385 14.5066L31.354 14.2909C31.47 14.2663 31.5436 14.1531 31.519 14.0371C31.4974 13.9357 31.408 13.8666 31.3083 13.8675L31.3083 13.8677ZM4.28214 15.2716C4.18291 15.2811 4.10123 15.359 4.09033 15.4621C4.07787 15.58 4.16268 15.685 4.28057 15.6975L6.73507 15.957C6.85296 15.9694 6.95793 15.8845 6.97038 15.7666C6.98284 15.6487 6.89793 15.5438 6.78004 15.5313L4.32555 15.2718C4.31081 15.2703 4.29632 15.2703 4.28214 15.2716V15.2716ZM31.5689 15.2901C31.5547 15.2885 31.5401 15.2885 31.5254 15.2903L29.0706 15.5464C28.9527 15.5587 28.8677 15.6636 28.88 15.7815C28.8923 15.8994 28.9971 15.9844 29.115 15.9721L31.5698 15.7159C31.6877 15.7036 31.7727 15.5988 31.7604 15.4809C31.7497 15.3777 31.6681 15.2997 31.5689 15.2901L31.5689 15.2901ZM4.24058 16.7108C4.12203 16.7108 4.02661 16.8062 4.02661 16.9248C4.02661 17.0433 4.12203 17.1387 4.24058 17.1387H5.2788C5.39734 17.1387 5.49286 17.0433 5.49286 16.9248C5.49286 16.8062 5.39734 16.7108 5.2788 16.7108H4.24058ZM30.57 16.7108C30.4514 16.7108 30.356 16.8062 30.356 16.9248C30.356 17.0433 30.4514 17.1387 30.57 17.1387H31.6082C31.7267 17.1387 31.8222 17.0433 31.8222 16.9248C31.8222 16.8062 31.7267 16.7108 31.6082 16.7108H30.57ZM6.77719 17.8773C6.763 17.8758 6.74851 17.8758 6.73376 17.8775L4.2789 18.1336C4.16099 18.1459 4.076 18.2508 4.08829 18.3687C4.1006 18.4866 4.20541 18.5716 4.32331 18.5593L6.7782 18.3031C6.8961 18.2908 6.98109 18.186 6.9688 18.0681C6.95802 17.9649 6.87639 17.8869 6.77717 17.8773H6.77719ZM29.0703 17.8924C28.971 17.9019 28.8894 17.9798 28.8785 18.083C28.866 18.2008 28.9508 18.3058 29.0687 18.3183L31.5232 18.5778C31.6411 18.5902 31.7461 18.5053 31.7585 18.3874C31.771 18.2695 31.6861 18.1646 31.5682 18.1521L29.1138 17.8926C29.099 17.8911 29.0844 17.8911 29.0703 17.8924L29.0703 17.8924ZM5.55353 19.338C5.5393 19.3381 5.52481 19.3395 5.51033 19.3426L4.49474 19.5583C4.37878 19.583 4.30527 19.6961 4.32989 19.8121C4.35455 19.928 4.46772 20.0016 4.58368 19.9769L5.59927 19.7613C5.71522 19.7366 5.78873 19.6235 5.7641 19.5075C5.74255 19.406 5.65323 19.337 5.55355 19.3379L5.55353 19.338ZM30.2949 19.34C30.1953 19.339 30.1059 19.4081 30.0844 19.5096C30.0597 19.6255 30.1332 19.7387 30.2491 19.7634L31.2647 19.9792C31.3807 20.0038 31.4939 19.9304 31.5185 19.8144C31.5432 19.6985 31.4696 19.5852 31.3536 19.5606L30.3382 19.3447C30.3237 19.3417 30.3092 19.3402 30.295 19.3402L30.2949 19.34ZM7.26369 20.1828C7.23598 20.1803 7.20737 20.1833 7.17918 20.1927L4.8319 20.9557C4.71916 20.9923 4.65793 21.1126 4.69458 21.2253C4.73123 21.3381 4.85149 21.3993 4.96424 21.3627L7.31144 20.5997C7.42418 20.563 7.48549 20.4427 7.44884 20.33C7.42134 20.2454 7.34679 20.1899 7.26369 20.1828V20.1828ZM28.5828 20.1904C28.4997 20.1974 28.4251 20.2529 28.3976 20.3374C28.3609 20.4501 28.422 20.5705 28.5347 20.6072L30.8815 21.3718C30.9942 21.4085 31.1145 21.3474 31.1512 21.2347C31.188 21.122 31.1268 21.0017 31.0141 20.9649L28.6673 20.2003C28.6392 20.1911 28.6105 20.1881 28.5828 20.1904V20.1904ZM6.36798 21.854C6.34017 21.8545 6.31202 21.8605 6.28495 21.8726L5.33642 22.2949C5.22811 22.3431 5.17978 22.4691 5.22799 22.5774C5.27623 22.6857 5.4022 22.734 5.5105 22.6858L6.45903 22.2636C6.56732 22.2154 6.61567 22.0894 6.56746 21.9811C6.53131 21.8998 6.45136 21.8523 6.36798 21.854V21.854ZM29.4774 21.8621C29.394 21.8601 29.314 21.9078 29.2778 21.989C29.2295 22.0973 29.2778 22.2233 29.386 22.2716L30.3342 22.6946C30.4425 22.7429 30.5685 22.6946 30.6168 22.5863C30.6651 22.4781 30.6168 22.3521 30.5085 22.3038L29.5604 21.8808C29.5333 21.8687 29.5052 21.8627 29.4774 21.8621V21.8621ZM8.21472 22.3258C8.17364 22.3228 8.13122 22.3319 8.09272 22.3542L5.95526 23.5883C5.8526 23.6476 5.81767 23.7779 5.87695 23.8806C5.93622 23.9832 6.06657 24.0182 6.16923 23.9589L8.3067 22.7249C8.40936 22.6656 8.44428 22.5352 8.38501 22.4325C8.34795 22.3683 8.28319 22.3306 8.21472 22.3258V22.3258ZM27.6341 22.3258C27.5657 22.3304 27.5008 22.3683 27.4638 22.4325C27.4045 22.5352 27.4394 22.6656 27.5421 22.7249L29.6795 23.9589C29.7822 24.0181 29.9126 23.9832 29.9719 23.8806C30.0312 23.7779 29.9963 23.6475 29.8936 23.5883L27.756 22.3542C27.7176 22.332 27.6752 22.323 27.6341 22.3258V22.3258ZM7.68157 24.1368C7.64039 24.1384 7.59917 24.1516 7.56318 24.1778L6.72287 24.7874C6.62692 24.8571 6.6057 24.9903 6.67529 25.0863C6.74491 25.1822 6.8782 25.2035 6.97415 25.1338L7.81454 24.5241C7.9105 24.4545 7.93172 24.3212 7.86212 24.2253C7.8186 24.1653 7.75017 24.1345 7.68157 24.1368V24.1368ZM28.1621 24.144C28.0935 24.1415 28.0251 24.1724 27.9816 24.2323C27.9119 24.3282 27.933 24.4616 28.0289 24.5313L28.8689 25.1415C28.9648 25.2112 29.098 25.1901 29.1677 25.0941C29.2374 24.9982 29.2163 24.865 29.1204 24.7953L28.2805 24.185C28.2446 24.1589 28.2033 24.1455 28.1621 24.144L28.1621 24.144ZM9.58473 24.2179C9.53012 24.2149 9.47441 24.2331 9.43032 24.2727L7.59477 25.9227C7.50661 26.002 7.49944 26.1367 7.5787 26.2249C7.65794 26.313 7.79271 26.3202 7.88087 26.241L9.71643 24.5909C9.80459 24.5117 9.81176 24.3769 9.7325 24.2888C9.6929 24.2447 9.63935 24.2208 9.58473 24.2179ZM26.2589 24.2238C26.2043 24.2269 26.1507 24.2505 26.1111 24.2946C26.0318 24.3827 26.0389 24.5174 26.127 24.5967L27.9613 26.2481C28.0494 26.3274 28.1843 26.3203 28.2636 26.2322C28.3429 26.1441 28.3358 26.0093 28.2477 25.93L26.4132 24.2787C26.3692 24.239 26.3136 24.221 26.2589 24.2238V24.2238ZM11.3261 25.7914C11.2575 25.7888 11.189 25.8195 11.1455 25.8795L9.69353 27.8754C9.62379 27.9712 9.64477 28.1046 9.7406 28.1743C9.83646 28.244 9.9698 28.2231 10.0395 28.1272L11.4915 26.1313C11.5612 26.0354 11.5402 25.9021 11.4444 25.8324C11.4085 25.8062 11.3673 25.7928 11.3261 25.7914ZM24.5107 25.8003C24.4696 25.8019 24.4283 25.815 24.3923 25.8412C24.2964 25.9108 24.2752 26.044 24.3448 26.14L25.794 28.1378C25.8636 28.2338 25.9969 28.255 26.0929 28.1854C26.1888 28.1158 26.21 27.9825 26.1405 27.8866L24.6912 25.8887C24.6477 25.8288 24.5793 25.798 24.5107 25.8004V25.8003ZM9.45175 26.1086C9.39712 26.1116 9.34356 26.1353 9.3039 26.1793L8.60923 26.9508C8.5299 27.0389 8.53693 27.1738 8.62504 27.2531C8.71314 27.3324 8.84789 27.3253 8.92721 27.2372L9.62196 26.4657C9.7013 26.3776 9.69419 26.2427 9.60611 26.1634C9.56203 26.1238 9.5064 26.1057 9.45178 26.1086L9.45175 26.1086ZM26.3957 26.1096C26.3411 26.1066 26.2854 26.1248 26.2414 26.1645C26.1533 26.2438 26.1462 26.3785 26.2255 26.4666L26.9201 27.2383C26.9994 27.3264 27.1341 27.3335 27.2222 27.2542C27.3103 27.1749 27.3174 27.04 27.2381 26.9519L26.5435 26.1803C26.5039 26.1363 26.4503 26.1125 26.3957 26.1096L26.3957 26.1096ZM13.3537 26.9655C13.2703 26.9635 13.1904 27.0112 13.1542 27.0924L12.1486 29.3464C12.1003 29.4547 12.1486 29.5807 12.2568 29.629C12.3651 29.6773 12.4911 29.629 12.5394 29.5208L13.545 27.2668C13.5933 27.1585 13.545 27.0325 13.4368 26.9842C13.4097 26.9721 13.3815 26.9661 13.3537 26.9655ZM22.4815 26.9717C22.4537 26.9722 22.4255 26.9782 22.3984 26.9903C22.2901 27.0384 22.2416 27.1644 22.2898 27.2727L23.2923 29.5281C23.3404 29.6363 23.4664 29.6848 23.5748 29.6367C23.683 29.5885 23.7315 29.4626 23.6834 29.3543L22.6809 27.0989C22.6448 27.0177 22.5649 26.9701 22.4815 26.9717V26.9717ZM11.5866 27.6624C11.5182 27.667 11.4534 27.7049 11.4163 27.7691L10.8972 28.6682C10.8379 28.7709 10.8729 28.9012 10.9755 28.9605C11.0782 29.0198 11.2086 28.9848 11.2678 28.8822L11.7869 27.9831C11.8462 27.8804 11.8113 27.75 11.7086 27.6908C11.6701 27.6685 11.6277 27.6595 11.5866 27.6624V27.6624ZM24.2621 27.6624C24.2211 27.6594 24.1787 27.6686 24.1402 27.6908C24.0376 27.7501 24.0026 27.8804 24.0619 27.9831L24.581 28.8822C24.6403 28.9849 24.7707 29.0198 24.8733 28.9605C24.976 28.9012 25.0109 28.7709 24.9516 28.6682L24.4325 27.7691C24.3955 27.7049 24.3306 27.6672 24.2621 27.6624V27.6624ZM15.5923 27.6946C15.4926 27.6936 15.4033 27.7627 15.3818 27.8642L14.8689 30.2785C14.8442 30.3945 14.9178 30.5077 15.0337 30.5323C15.1497 30.557 15.2628 30.4834 15.2875 30.3675L15.8004 27.9531C15.8251 27.8372 15.7515 27.724 15.6356 27.6994C15.6211 27.6963 15.6066 27.6948 15.5923 27.6948L15.5923 27.6946ZM20.2488 27.6962C20.2346 27.6963 20.2202 27.6977 20.2057 27.7007C20.0898 27.7253 20.0161 27.8384 20.0407 27.9543L20.5519 30.369C20.5764 30.485 20.6896 30.5586 20.8055 30.5341C20.9215 30.5095 20.9951 30.3964 20.9706 30.2804L20.4593 27.8659C20.4378 27.7644 20.3485 27.6953 20.2489 27.6961L20.2488 27.6962ZM17.9244 27.9397C17.8058 27.9397 17.7104 28.0351 17.7104 28.1537V30.6218C17.7104 30.7404 17.8058 30.8358 17.9244 30.8358C18.0429 30.8358 18.1384 30.7404 18.1384 30.6218V28.1537C18.1384 28.0351 18.0429 27.9397 17.9244 27.9397ZM13.9965 28.7372C13.9134 28.7443 13.8388 28.7999 13.8114 28.8844L13.4904 29.8719C13.4538 29.9846 13.515 30.1049 13.6278 30.1415C13.7405 30.1782 13.8608 30.1168 13.8974 30.0041L14.2183 29.0168C14.255 28.904 14.1937 28.7838 14.081 28.7471C14.0529 28.738 14.0242 28.7349 13.9965 28.7373V28.7372ZM21.8506 28.7377C21.8229 28.7352 21.7943 28.7383 21.7661 28.7476C21.6533 28.7842 21.592 28.9045 21.6286 29.0172L21.9495 30.0046C21.9861 30.1174 22.1064 30.1786 22.2192 30.142C22.3319 30.1053 22.3932 29.9851 22.3566 29.8724L22.0357 28.885C22.0082 28.8004 21.9337 28.7448 21.8506 28.7378V28.7377ZM16.5812 29.2877C16.482 29.2972 16.4003 29.3751 16.3894 29.4783L16.2809 30.5109C16.2685 30.6288 16.3534 30.7336 16.4713 30.746C16.5892 30.7584 16.6941 30.6735 16.7066 30.5556L16.8151 29.5231C16.8275 29.4052 16.7425 29.3003 16.6246 29.2879C16.6099 29.2863 16.5954 29.2863 16.5812 29.2877L16.5812 29.2877ZM19.2589 29.2887C19.2448 29.2872 19.2302 29.2872 19.2154 29.2889C19.0975 29.3012 19.0125 29.406 19.0248 29.5239L19.1327 30.5566C19.145 30.6745 19.2498 30.7594 19.3677 30.7471C19.4856 30.7348 19.5706 30.63 19.5583 30.5121L19.4505 29.4795C19.4398 29.3763 19.3581 29.2983 19.2589 29.2887L19.2589 29.2887Z" fill="#F4F2F3"/>
<g opacity="0.409" filter="url(#filter1_f)">
<path d="M27.9538 8.36543L16.2466 15.1673L8.84448 26.8204L19.6732 18.7997L27.9538 8.36543Z" fill="black"/>
</g>
<path d="M19.6022 18.6815L16.2466 15.1674L28.1503 7.1597L19.6022 18.6815Z" fill="#FF5150"/>
<path d="M19.6022 18.6815L16.2466 15.1673L7.69845 26.6891L19.6022 18.6815Z" fill="#F1F1F1"/>
<path opacity="0.243" d="M7.69849 26.6891L19.6022 18.6815L28.1503 7.15969L7.69849 26.6891Z" fill="black"/>
<defs>
<filter id="filter0_f" x="0.215308" y="1.0878" width="35.4183" height="34.2811" filterUnits="userSpaceOnUse" color-interpolation-filters="sRGB">
<feFlood flood-opacity="0" result="BackgroundImageFix"/>
<feBlend mode="normal" in="SourceGraphic" in2="BackgroundImageFix" result="shape"/>
<feGaussianBlur stdDeviation="1.18446" result="effect1_foregroundBlur"/>
</filter>
<filter id="filter1_f" x="8.17116" y="7.6921" width="20.456" height="19.8016" filterUnits="userSpaceOnUse" color-interpolation-filters="sRGB">
<feFlood flood-opacity="0" result="BackgroundImageFix"/>
<feBlend mode="normal" in="SourceGraphic" in2="BackgroundImageFix" result="shape"/>
<feGaussianBlur stdDeviation="0.336663" result="effect1_foregroundBlur"/>
</filter>
<linearGradient id="paint0_linear" x1="17.9244" y1="32.8488" x2="17.9244" y2="1" gradientUnits="userSpaceOnUse">
<stop stop-color="#BDBDBD"/>
<stop offset="1" stop-color="white"/>
</linearGradient>
<radialGradient id="paint1_radial" cx="0" cy="0" r="1" gradientUnits="userSpaceOnUse" gradientTransform="translate(17.9912 14.7846) scale(15.9245)">
<stop stop-color="#06C2E7"/>
<stop offset="0.25" stop-color="#0DB8EC"/>
<stop offset="0.5" stop-color="#12AEF1"/>
<stop offset="0.75" stop-color="#1F86F9"/>
<stop offset="1" stop-color="#107DDD"/>
</radialGradient>
</defs>
</svg>
