<svg xmlns="http://www.w3.org/2000/svg" width="204" height="137" viewBox="0 0 204 137">
    <g fill="none" fill-rule="evenodd">
        <path d="M0 0h204v137H0z"/>
        <path fill="#BBD9FD" d="M67.429 134.273c2.862 1.018 10.204 1.899 16.12 2.25 16.159.964 38.736.44 48.307-1.33 9.642-1.785 10.07-4.485-14.44-5.821-20.872-1.14-45.235.484-50.445 2.9-1.398.65-1.321 1.37.458 2.001"/>
        <g transform="translate(60 39)">
            <rect width="84" height="84" fill="#297EF1" rx="41.5"/>
            <path fill="#FFF" d="M56.113 63.003H27.887C19.125 63.003 12 55.859 12 47.078c0-4.188 1.608-8.143 4.531-11.136a15.78 15.78 0 0 1 9.465-4.675 15.836 15.836 0 0 1 4.664-9.486 15.77 15.77 0 0 1 11.11-4.541c4.177 0 8.124 1.61 11.11 4.54a15.847 15.847 0 0 1 4.66 9.438C65.634 31.945 72 38.781 72 47.08c0 8.78-7.13 15.924-15.889 15.924h.002z"/>
            <path fill="#297EF1" stroke="#297EF1" d="M51.689 46.872c-1.168-.738-1.225-2.093-1.228-2.153a.677.677 0 0 0-.7-.653.677.677 0 0 0-.675.678c.003.048.023.685.336 1.435-4.156 3.814-10.687 3.819-14.851.023a4.28 4.28 0 0 0 .342-1.457.677.677 0 0 0-.67-.677.684.684 0 0 0-.704.65c0 .054-.056 1.415-1.227 2.153a.655.655 0 0 0-.2.924.702.702 0 0 0 .95.194c.302-.19.554-.407.765-.637 2.313 2.018 5.235 3.027 8.158 3.027 2.93 0 5.86-1.013 8.177-3.04.212.232.467.454.776.65a.698.698 0 0 0 .95-.196.656.656 0 0 0-.2-.923v.002z"/>
        </g>
        <g transform="translate(110 90)">
            <rect width="64" height="32" fill="#FFF" rx="4"/>
            <path fill="#BBD9FD" fill-rule="nonzero" d="M60 0a4 4 0 0 1 4 4v24a4 4 0 0 1-4 4H4a4 4 0 0 1-4-4V4a4 4 0 0 1 4-4h56zm0 4H4v24h56V4z"/>
            <path fill="#FF962F" d="M16 10c1.068 0 1.936.867 1.936 1.936v1.61l1.53-.498a1.936 1.936 0 0 1 1.197 3.682l-1.531.497.946 1.3a1.937 1.937 0 0 1-3.133 2.277l-.945-1.3-.946 1.3a1.93 1.93 0 0 1-1.568.798 1.938 1.938 0 0 1-1.564-3.074l.946-1.3-1.53-.498a1.937 1.937 0 0 1-1.243-2.439 1.937 1.937 0 0 1 2.438-1.243l1.531.498v-1.61C14.064 10.867 14.93 10 16 10zm16 0c1.068 0 1.936.867 1.936 1.936v1.61l1.53-.498a1.936 1.936 0 0 1 1.197 3.682l-1.531.497.946 1.3a1.937 1.937 0 0 1-3.133 2.277l-.945-1.3-.946 1.3a1.93 1.93 0 0 1-1.568.798 1.938 1.938 0 0 1-1.564-3.074l.946-1.3-1.53-.498a1.937 1.937 0 0 1-1.243-2.439 1.937 1.937 0 0 1 2.438-1.243l1.531.498v-1.61C30.064 10.867 30.93 10 32 10zm16 0c1.068 0 1.936.867 1.936 1.936v1.61l1.53-.498a1.936 1.936 0 0 1 1.197 3.682l-1.531.497.946 1.3a1.937 1.937 0 0 1-3.133 2.277l-.945-1.3-.946 1.3a1.93 1.93 0 0 1-1.568.798 1.938 1.938 0 0 1-1.564-3.074l.946-1.3-1.53-.498a1.937 1.937 0 0 1-1.243-2.439 1.937 1.937 0 0 1 2.438-1.243l1.531.498v-1.61C46.064 10.867 46.93 10 48 10z"/>
        </g>
        <g fill-rule="nonzero">
            <path fill="#FFF" d="M170 0c-18.778 0-34 15.222-34 34l.003.46a33.995 33.995 0 0 0 17.698 29.386l.239.128-.044.078c-.416.752-.684 1.575-.684 2.383 0 1.898.906 3.494 2.735 4.132l.296.098c3.435 1.09 6.456.129 10.23-2.475l.465-.327.748.06c.768.051 1.54.077 2.314.077 18.778 0 34-15.222 34-34S188.778 0 170 0z"/>
            <path fill="#BBD9FD" d="M170 0c-18.778 0-34 15.222-34 34l.003.46a33.995 33.995 0 0 0 17.698 29.386l.239.128-.044.078c-.416.752-.684 1.575-.684 2.383 0 1.898.906 3.494 2.735 4.132l.296.098c3.435 1.09 6.456.129 10.23-2.475l.465-.327.748.06c.768.051 1.54.077 2.314.077 18.778 0 34-15.222 34-34S188.778 0 170 0zm0 4c16.569 0 30 13.431 30 30 0 16.569-13.431 30-30 30-1.141 0-2.274-.064-3.396-.19l-.774-.087-.714.521c-3.297 2.432-5.473 3.275-7.641 2.615l-.21-.069c-.049-.017-.053-.023-.053-.355 0-.048.093-.292.236-.535l.063-.103c.471-.721.789-1.462.988-2.274l.392-1.598-1.494-.692A30.001 30.001 0 0 1 140 34c0-16.569 13.431-30 30-30z"/>
            <path fill="#FEC267" d="M185.525 49.002a3.669 3.669 0 0 1-3.186 3.45c-3.375.087-1.776.122-7.202-.195l-1.356.195c-7.54.44-12.946-2.033-16.996-4.708A12.884 12.884 0 0 1 151 36.991v-7.61a2.412 2.412 0 0 1 2.65-2.404c6.736.743 7.615 5.058 8.754 6.118l.249.138c2.182-.61 4.445-.477 6.786.401 2.341.878 4.038 2.61 5.088 5.197.306.167.48.174.522.02.67-2.728 3.916-5.45 4.883-12.051.029-.063.19-.902.009-1.898-.088-.555-.374-1.444-.514-2.146-2.525-.976-2.32-.908-3.249-1.602a.638.638 0 0 0-.634-.076c-3.358 1.447-4.749-.212-4.749-.212-.917-1.28-1.356-2.598-1.799-4.843a1.721 1.721 0 0 1 1.192-1.569c1.566-.51 4.22-1.2 5.07-1.419a1.1 1.1 0 0 1 .617.02c2.063.68 7.365 4.556 7.365 4.556 1.224.997 2.039 2.441 2.169 4.38.551 8.242.625 10.578.713 15.594.1 5.767-.578 8.322-.591 11.244 0 .058-.002.116-.006.173z"/>
            <path fill="#FF962F" d="M161 39.375a1 1 0 0 1 1.38.309c1.834 2.888 3.941 3.926 8.815 3.926a1 1 0 1 1 0 2c-5.527 0-8.283-1.357-10.503-4.855a1 1 0 0 1 .309-1.38z"/>
        </g>
    </g>
</svg>
